<svg width="746" height="230" viewBox="0 0 746 230" fill="none" xmlns="http://www.w3.org/2000/svg">
<rect x="0.5" y="0.5" width="745" height="265" rx="5.5" fill="#FF6F91" stroke="#FF6F91"/>
<path d="M2 236.46C36.3185 236.46 70.8893 237.29 105.182 236.145C139.475 235 173.278 229.731 207.468 228.03C238.548 226.483 269.19 226.898 300.105 230.265C327.812 233.285 354.726 235.465 382.66 235.137C407.143 234.845 430.083 231.551 454.262 228.481C481.934 224.964 510.423 226.606 537.837 231.086C568.01 236.022 596.469 240.743 627.281 241.282C666.146 241.966 704.574 235.278 743.465 236.46" stroke="url(#paint0_linear_140_4815)" stroke-miterlimit="10"/>
<path d="M2 230.082C35.577 230.082 69.6638 231.2 103.184 229.412C139.001 227.505 174.21 220.599 209.95 218.007C240.636 215.754 271.527 217.299 301.732 222.597C328.698 227.259 354.767 231.424 382.33 231.232C407.854 231.054 430.948 225.329 455.725 220.699C483.849 215.444 511.68 217.437 539.376 223.81C569.061 230.653 596.464 238.024 627.487 238.221C666.419 238.471 704.466 229.316 743.465 230.087" stroke="url(#paint1_linear_140_4815)" stroke-miterlimit="10"/>
<path d="M2 223.806C34.7841 223.778 68.3714 225.174 101.042 222.734C138.548 219.956 175.189 211.384 212.555 207.803C243.913 204.802 272.892 207.593 303.138 215.134C329.032 221.593 354.113 228.062 381.275 228.075C408.132 228.075 432.024 219.477 457.512 213.2C486.547 206.051 513.322 208.132 541.694 216.767C570.569 225.553 597.082 235.926 628.275 235.698C667.15 235.388 704.481 223.596 743.465 223.806" stroke="url(#paint2_linear_140_4815)" stroke-miterlimit="10"/>
<path d="M2 217.629C33.9551 217.588 67.0378 219.139 98.8023 216.137C138.028 212.433 176.038 202.206 215.125 197.589C246.92 193.835 274.519 197.849 304.276 207.894C328.826 216.183 352.939 225.165 379.658 225.448C407.895 225.749 433.352 213.938 459.468 205.987C489.626 196.805 515.377 198.757 544.52 209.947C572.274 220.603 598.153 234.284 629.48 233.517C668.216 232.569 704.563 218.067 743.454 217.629" stroke="url(#paint3_linear_140_4815)" stroke-miterlimit="10"/>
<path d="M2 211.553C33.1364 211.498 65.7042 213.15 96.6088 209.651C137.513 205.021 176.898 193.187 217.612 187.54C250.051 183.038 276.084 188.192 305.213 200.883C328.25 210.919 351.389 222.51 377.737 223.122C407.355 223.801 434.856 208.46 461.574 199.031C475.569 194.118 490.321 189.515 505.578 190.574C520.51 191.614 534.65 197.184 547.708 203.346C574.03 215.741 599.672 232.802 630.994 231.497C669.56 229.887 704.692 212.684 743.47 211.567" stroke="url(#paint4_linear_140_4815)" stroke-miterlimit="10"/>
<path d="M2.02539 205.581C32.4048 205.513 64.4423 207.205 94.5025 203.3C136.967 197.799 177.583 184.438 219.805 177.814C252.985 172.604 277.516 178.804 305.856 194.108C327.343 205.714 349.515 219.896 375.626 220.858C406.52 221.994 436.385 203.045 463.613 192.32C477.876 186.7 493.606 180.774 509.537 182.079C524.47 183.302 538.46 189.98 550.946 196.905C575.842 210.718 601.221 231.223 632.62 229.393C671.022 227.149 704.8 207.333 743.474 205.581" stroke="url(#paint5_linear_140_4815)" stroke-miterlimit="10"/>
<path d="M2.03076 199.715C31.6842 199.633 63.2479 201.325 92.5409 197.133C136.39 190.852 178.098 176.081 221.628 168.572C238.203 165.716 253.912 164.065 270.147 169.074C283.375 173.157 295.012 180.323 306.237 187.567C326.319 200.518 347.517 217.127 373.566 218.427C405.593 220.028 437.857 197.644 465.528 185.825C480.039 179.625 496.737 172.445 513.276 173.964C528.275 175.333 542.08 183.028 554.03 190.628C577.603 205.609 602.679 229.321 634.248 227.026C672.51 224.239 704.888 201.968 743.495 199.692" stroke="url(#paint6_linear_140_4815)" stroke-miterlimit="10"/>
<path d="M2.03613 193.944C31.0665 193.858 62.2029 195.541 90.8214 191.157C135.783 184.269 178.283 168.23 222.91 160.014C239.542 156.953 255.205 155.056 271.358 160.739C284.462 165.379 295.63 173.339 306.309 181.295C325.212 195.359 345.525 214.052 371.703 215.626C388.432 216.634 405.254 208.902 419.702 202.356C435.731 195.094 451.142 186.819 467.166 179.548C481.892 172.869 499.399 164.676 516.494 166.387C531.601 167.897 545.19 176.377 556.713 184.543C579.205 200.509 603.807 226.903 635.679 224.23C673.875 221.037 704.898 196.549 743.501 193.926" stroke="url(#paint7_linear_140_4815)" stroke-miterlimit="10"/>
<path d="M2.0415 188.279C30.5518 188.192 61.3587 189.88 89.4262 185.414C135.181 178.138 178.175 161.004 223.549 152.278C240.103 149.084 255.885 147.045 271.873 153.135C284.962 158.121 295.795 166.766 306.088 175.269C324.203 190.227 343.749 210.472 370.246 212.219C387.433 213.341 404.744 204.966 419.419 198.041C435.984 190.217 451.858 181.313 468.423 173.48C483.355 166.414 501.377 157.578 518.93 159.38C534.197 160.949 547.553 169.959 558.763 178.594C580.559 195.377 604.409 223.664 636.792 220.813C674.988 217.451 704.826 190.998 743.506 188.297" stroke="url(#paint8_linear_140_4815)" stroke-miterlimit="10"/>
<path d="M2.05176 182.714C30.1605 182.641 60.7768 184.361 88.4324 179.931C134.573 172.541 177.686 154.509 223.41 145.545C239.737 142.352 255.813 140.272 271.574 146.403C284.771 151.535 295.455 160.644 305.558 169.508C323.384 185.173 342.353 206.23 369.406 207.927C386.975 209.031 404.332 200.569 419.213 193.329C436.128 185.118 452.296 175.757 469.205 167.537C484.328 160.184 502.427 151.206 520.341 152.994C535.788 154.536 548.918 163.71 559.988 172.715C581.614 190.3 604.327 219.304 637.466 216.48C675.76 213.218 704.697 185.136 743.537 182.723" stroke="url(#paint9_linear_140_4815)" stroke-miterlimit="10"/>
<path d="M2.05713 177.239C30.0629 177.084 60.5813 179.018 88.1185 174.502C133.945 166.971 176.507 148.4 221.87 139.226C238.152 135.937 254.217 133.967 269.968 140.025C283.355 145.184 294.251 154.403 304.503 163.376C322.658 179.269 341.828 200.595 369.237 202.584C386.929 203.866 404.183 195.509 419.131 188.156C436.071 179.817 452.208 170.274 469.144 161.93C484.339 154.44 502.345 145.585 520.392 147.501C535.943 149.153 548.995 158.345 560.086 167.45C581.8 185.282 604.08 213.902 637.482 211.242C675.884 208.195 704.523 179.347 743.522 177.239" stroke="url(#paint10_linear_140_4815)" stroke-miterlimit="10"/>
<path d="M2.06152 171.888C30.1857 171.605 60.6115 174.046 88.2465 169.215C133.26 161.346 174.864 142.47 219.398 132.972C235.875 129.455 251.518 127.626 267.496 133.725C281.125 138.921 292.407 148.044 303.034 156.939C321.792 172.659 341.771 194.2 369.179 196.914C386.763 198.656 404.079 190.277 418.898 182.928C435.633 174.63 451.528 165.078 468.257 156.771C483.421 149.239 501.428 140.453 519.449 142.73C534.953 144.687 548.196 154.011 559.442 163.016C581.269 180.487 604.193 208.569 637.193 205.987C675.687 202.972 704.419 173.959 743.511 171.888" stroke="url(#paint11_linear_140_4815)" stroke-miterlimit="10"/>
<path d="M2.07178 166.629C30.3556 166.292 60.699 169.412 88.5039 164.298C132.6 156.187 173.118 137.065 216.715 127.348C233.331 123.635 248.609 121.979 264.766 128C278.607 133.16 290.342 142.046 301.366 150.873C320.752 166.383 341.652 187.846 369.035 191.217C386.459 193.366 403.642 185.159 418.327 177.842C434.778 169.631 450.339 160.138 466.78 151.931C481.897 144.386 499.733 135.851 517.673 138.451C533.192 140.705 546.672 150.07 558.17 158.979C580.285 176.086 603.961 203.465 636.709 200.92C675.373 197.918 704.264 168.718 743.526 166.657" stroke="url(#paint12_linear_140_4815)" stroke-miterlimit="10"/>
<path d="M2.08203 161.47C30.5615 161.146 60.8894 165.092 88.89 159.718C131.977 151.457 171.316 132.138 213.889 122.252C230.572 118.379 245.56 116.924 261.852 122.772C275.94 127.827 288.112 136.458 299.564 145.125C319.758 160.357 341.39 181.509 368.85 185.501C386.068 188.001 402.947 180.15 417.488 172.883C433.578 164.836 448.742 155.425 464.823 147.369C479.884 139.82 497.375 131.709 515.206 134.596C530.798 137.128 544.556 146.457 556.399 155.243C578.957 171.971 603.477 198.511 636.05 195.979C674.951 192.955 704.064 163.559 743.562 161.483" stroke="url(#paint13_linear_140_4815)" stroke-miterlimit="10"/>
<path d="M2.08789 156.411C30.799 156.155 61.1167 161.05 89.3696 155.444C131.376 147.109 169.463 127.617 210.939 117.677C227.612 113.672 242.394 112.426 258.768 118.019C273.109 122.918 285.708 131.248 297.628 139.651C318.74 154.536 341.03 175.182 368.593 179.748C401.856 185.264 435.469 156.561 462.424 143.031C477.428 135.495 494.446 127.945 512.123 131.107C527.838 133.921 541.884 143.159 554.134 151.812C577.264 168.148 602.7 193.739 635.19 191.194C674.38 188.128 703.771 158.518 743.552 156.411" stroke="url(#paint14_linear_140_4815)" stroke-miterlimit="10"/>
<path d="M2.09814 151.457C31.0616 151.315 61.3844 157.259 89.9308 151.457C130.809 143.118 167.584 123.534 207.906 113.562C224.522 109.457 239.161 108.435 255.581 113.704C270.184 118.398 283.221 126.358 295.61 134.496C317.638 148.957 340.592 168.914 368.294 174.046C401.052 180.104 433.219 152.232 459.674 138.921C474.303 131.572 491.357 124.164 508.549 127.95C524.511 131.462 538.573 139.979 551.518 148.647C575.312 164.567 601.727 189.123 634.217 186.55C673.741 183.425 703.446 153.591 743.563 151.425" stroke="url(#paint15_linear_140_4815)" stroke-miterlimit="10"/>
<path d="M2.10791 146.598C31.3443 146.598 61.698 153.683 90.5636 147.666C130.278 139.386 165.704 119.721 204.837 109.803C272.804 92.5646 308.261 156.205 367.964 168.385C400.146 174.959 430.685 148.09 456.662 135.048C471.223 127.749 487.618 121.103 504.594 125.103C520.757 128.913 535.149 137.242 548.614 145.745C573.149 161.255 600.588 184.693 633.146 182.08C673.036 178.886 703.091 148.82 743.578 146.598" stroke="url(#paint16_linear_140_4815)" stroke-miterlimit="10"/>
<path d="M2.11816 141.845C31.6377 142.036 62.0429 150.284 91.2535 144.089C129.784 135.919 163.855 116.208 201.768 106.377C268.33 89.1249 308.868 149.714 367.609 162.765C399.234 169.799 427.94 144.121 453.443 131.33C467.943 124.059 483.622 118.288 500.357 122.471C516.736 126.577 531.493 134.697 545.498 143.022C570.821 158.076 599.306 180.387 632.003 177.714C672.284 174.425 702.715 144.139 743.593 141.845" stroke="url(#paint17_linear_140_4815)" stroke-miterlimit="10"/>
<path d="M2.12842 137.192C31.9415 137.58 62.4085 147.032 91.9846 140.682C129.336 132.662 162.012 112.928 198.75 103.23C263.901 86.0278 309.455 143.305 367.243 157.227C398.302 164.709 425.057 140.294 450.112 127.754C464.56 120.524 479.462 115.679 495.939 119.999C512.544 124.374 527.683 132.316 542.244 140.436C568.381 155.033 597.916 176.181 630.777 173.449C671.455 170.06 702.287 139.546 743.572 137.174" stroke="url(#paint18_linear_140_4815)" stroke-miterlimit="10"/>
<path d="M2.13867 132.64C32.2401 133.228 62.7946 143.889 92.7621 137.407C128.96 129.569 160.287 109.826 195.841 100.292C259.607 83.1903 310.032 137.028 366.872 151.785C397.37 159.704 422.117 136.59 446.744 124.292C461.131 117.107 475.306 113.216 491.51 117.691C508.348 122.344 523.883 130.085 538.99 138.004C565.945 152.145 596.52 172.126 629.588 169.325C670.693 165.84 701.906 135.112 743.603 132.64" stroke="url(#paint19_linear_140_4815)" stroke-miterlimit="10"/>
<path d="M2.14941 128.192C32.5289 128.976 63.1864 140.818 93.4989 134.227C128.585 126.595 158.588 106.856 193.01 97.5094C255.514 80.5397 310.614 130.874 366.533 146.457C396.475 154.805 419.208 132.991 443.434 120.911C457.759 113.772 471.239 110.834 487.134 115.437C504.203 120.373 520.129 127.936 535.777 135.636C563.526 149.294 595.12 168.148 628.414 165.288C669.931 161.707 701.531 130.728 743.634 128.201" stroke="url(#paint20_linear_140_4815)" stroke-miterlimit="10"/>
<path d="M2.15918 123.84C32.8424 124.811 63.572 137.789 94.2553 131.106C128.285 123.694 157.022 103.969 190.373 94.8224C251.677 78.0079 311.185 124.848 366.167 141.256C395.609 150.042 416.308 129.437 440.2 117.599C454.478 110.528 467.253 108.476 482.88 113.211C500.171 118.429 516.483 125.842 532.641 133.319C561.151 146.507 593.719 164.252 627.245 161.319C669.153 157.647 701.123 126.444 743.613 123.84" stroke="url(#paint21_linear_140_4815)" stroke-miterlimit="10"/>
<path d="M2.16992 119.593C33.1415 120.724 63.9586 134.77 94.9869 128.018C128.044 120.829 155.591 101.104 187.943 92.172C219.326 83.5047 252.713 93.2897 282.026 103.745C310.295 113.831 337.168 127.06 365.858 136.206C394.93 145.476 413.472 125.842 437.183 114.31C468.67 99.0055 500.918 118.416 529.737 131.002C558.938 143.738 592.422 160.425 626.169 157.428C668.448 153.678 700.769 122.257 743.634 119.588" stroke="url(#paint22_linear_140_4815)" stroke-miterlimit="10"/>
<path d="M2.18018 115.441C33.4401 116.705 64.2624 131.722 95.6871 124.921C127.864 117.95 154.314 98.2392 185.796 89.5034C216.891 80.8635 251.158 90.247 280.61 99.8221C309.45 109.201 336.9 121.586 365.585 131.33C394.271 141.074 411.026 122.403 434.433 111.035C465.204 96.0951 498.797 116.965 527.116 128.666C556.929 140.983 591.263 156.657 625.196 153.619C667.804 149.8 700.444 118.169 743.624 115.441" stroke="url(#paint23_linear_140_4815)" stroke-miterlimit="10"/>
<path d="M2.19043 111.395C33.7439 112.764 64.5404 128.62 96.3307 121.778C127.74 115.022 153.217 95.3197 183.865 86.7528C214.723 78.1539 249.773 87.1542 279.359 95.9355C308.709 104.653 336.709 116.295 365.348 126.636C378.86 131.513 388.761 131.713 401.824 125.423C412.442 120.309 421.422 112.882 432.024 107.732C446.168 100.853 457.434 101.045 472.248 106.158C490.048 112.312 507.39 119.387 524.856 126.262C555.169 138.159 590.249 152.921 624.336 149.855C667.238 145.996 700.151 114.155 743.64 111.395" stroke="url(#paint24_linear_140_4815)" stroke-miterlimit="10"/>
<path d="M2.20117 107.445C34.0481 108.813 64.7519 125.427 96.913 118.562C127.699 111.988 152.307 92.213 182.336 83.865C213.035 75.33 248.728 83.9562 278.433 92.0761C308.138 100.196 336.658 111.235 365.205 122.184C378.397 127.243 388.041 127.959 400.991 121.7C411.258 116.737 419.826 109.411 430.067 104.411C444.135 97.5411 455.226 98.2709 469.782 103.553C487.67 110.045 505.28 117.106 523.075 123.789C553.768 135.312 589.534 149.253 623.672 146.178C666.811 142.296 699.945 110.264 743.645 107.486" stroke="url(#paint25_linear_140_4815)" stroke-miterlimit="10"/>
<path d="M2.21094 103.604C34.3565 104.936 64.8853 122.124 97.4067 115.241C127.735 108.813 151.575 88.8875 181.187 80.7859C211.845 72.3877 247.924 80.6216 277.814 88.1622C307.947 95.7575 336.714 106.336 365.142 117.886C378.066 123.132 387.603 124.236 400.455 117.978C410.444 113.119 418.667 105.839 428.625 100.935C442.625 94.0423 453.706 95.1599 468.041 100.643C485.955 107.486 503.77 114.565 521.839 121.107C552.733 132.297 589.095 145.517 623.208 142.465C666.517 138.588 699.811 106.373 743.696 103.604" stroke="url(#paint26_linear_140_4815)" stroke-miterlimit="10"/>
<path d="M2.22168 99.8591C34.6608 101.068 64.9269 118.672 97.8088 111.77C127.823 105.47 151.148 85.4577 180.405 77.4518C210.965 69.0947 247.518 77.1508 277.485 84.2214C307.926 91.4062 336.823 101.697 365.117 113.873C377.83 119.347 387.418 120.67 400.203 114.37C409.986 109.548 417.952 102.263 427.719 97.3957C441.668 90.4436 452.903 91.7574 467.068 97.4915C484.946 104.726 502.896 111.856 521.164 118.288C552.152 129.196 588.936 141.822 622.91 138.816C666.322 134.98 699.698 102.592 743.686 99.8591" stroke="url(#paint27_linear_140_4815)" stroke-miterlimit="10"/>
<path d="M2.2373 96.2092C34.8411 97.2949 64.8962 115.09 97.9789 108.124C127.89 101.829 151.076 81.8352 180.24 73.875C210.769 65.5452 247.487 73.7655 277.465 80.6856C308.014 87.7381 336.818 97.9518 365.148 110.182C377.815 115.656 387.536 116.796 400.234 110.538C409.95 105.748 417.864 98.5266 427.58 93.7231C441.483 86.8531 452.924 88.1304 466.955 94.0287C484.756 101.51 502.726 108.695 521.072 115.063C551.91 125.769 589.173 138.255 622.884 135.134C666.234 131.129 699.827 99.2884 743.702 96.2229" stroke="url(#paint28_linear_140_4815)" stroke-miterlimit="10"/>
<path d="M2.24707 92.6191C34.923 93.65 64.8905 111.564 98.0505 104.516C127.915 98.1661 151.22 78.3408 180.405 70.4308C210.933 62.1558 247.569 70.7364 277.5 77.7022C307.952 84.7911 336.632 94.9866 365.158 106.637C392.16 117.663 405.542 100.707 427.781 90.1329C441.683 83.523 453.197 84.7273 467.099 90.6484C484.822 98.1981 502.761 105.365 521.102 111.66C551.76 122.179 589.508 134.724 622.976 131.339C666.141 126.969 700.145 96.4235 743.727 92.6875" stroke="url(#paint29_linear_140_4815)" stroke-miterlimit="10"/>
<path d="M2.25781 89.0843C35.0316 90.0787 64.927 108.125 98.1899 101.018C128.054 94.6313 151.452 75.0159 180.652 67.1788C211.181 58.9677 247.708 67.8767 277.593 74.8653C307.927 81.9588 336.499 92.1087 365.189 103.171C391.964 113.499 405.826 96.8438 428.08 86.7486C441.982 80.4261 453.599 81.5939 467.377 87.5241C485.018 95.1149 502.906 102.227 521.242 108.412C551.776 118.717 589.899 131.13 623.09 127.517C666.038 122.846 700.46 93.6277 743.722 89.2987" stroke="url(#paint30_linear_140_4815)" stroke-miterlimit="10"/>
<path d="M2.26758 85.6125C35.1546 86.5796 65.0037 104.772 98.3902 97.6327C128.219 91.2554 151.755 71.8635 180.976 64.1085C211.505 56.0342 247.914 65.1668 277.742 72.16C307.931 79.2307 336.442 89.303 365.235 99.7539C391.82 109.393 406.155 93.1075 428.465 83.4822C442.404 77.4744 454.108 78.6422 467.784 84.5679C485.327 92.1723 503.178 99.2019 521.483 105.242C551.94 115.3 590.295 127.407 623.26 123.607C665.997 118.685 700.815 90.8403 743.748 85.9775" stroke="url(#paint31_linear_140_4815)" stroke-miterlimit="10"/>
<path d="M2.27783 82.2005C35.3039 83.1584 65.0964 101.492 98.6528 94.3483C128.456 88.0075 152.136 68.8346 181.383 61.2347C211.901 53.3019 248.125 62.6397 277.943 69.6101C307.967 76.6351 336.39 86.6025 365.302 96.4239C391.686 105.388 406.525 89.5312 428.939 80.4259C442.924 74.742 454.721 75.9509 468.309 81.8583C485.715 89.5013 503.575 96.3022 521.813 102.231C552.244 112.011 590.707 123.671 623.481 119.698C665.94 114.575 701.185 88.1353 743.742 82.8117" stroke="url(#paint32_linear_140_4815)" stroke-miterlimit="10"/>
<path d="M2.29395 78.8518C35.4693 79.8098 65.2515 98.3031 98.9727 91.1685C128.75 84.8779 152.59 65.9603 181.873 58.5156C212.381 50.7606 248.45 60.2445 278.211 67.1829C308.076 74.135 336.422 83.9655 365.4 93.1483C391.589 101.451 406.964 86.0639 429.511 77.5107C443.563 72.178 455.447 73.4553 468.958 79.3354C486.259 86.9277 504.055 93.6012 522.251 99.3203C552.697 108.795 591.156 119.821 623.755 115.743C665.941 110.465 701.588 85.4709 743.774 79.7322" stroke="url(#paint33_linear_140_4815)" stroke-miterlimit="10"/>
<path d="M2.30371 75.5764C35.649 76.5389 65.426 95.1918 99.3377 88.112C129.094 81.8989 153.104 63.2551 182.397 55.9883C212.89 48.4249 248.769 58.0228 278.504 64.9019C308.148 71.7445 336.483 81.4199 365.493 89.9504C391.495 97.6004 407.437 82.7383 430.139 74.7644C444.268 69.8012 456.245 71.1743 469.699 77.0452C486.882 84.5651 504.598 91.0884 522.735 96.574C553.232 105.697 591.572 115.989 624.032 111.815C665.925 106.432 701.958 82.9116 743.763 76.8217" stroke="url(#paint34_linear_140_4815)" stroke-miterlimit="10"/>
<path d="M2.31445 72.3648C35.8451 73.3501 65.6479 92.181 99.7553 85.1377C129.491 79.0341 153.676 60.6868 183 53.6161C213.472 46.2717 249.155 55.938 278.824 62.7395C308.261 69.4909 336.566 78.9474 365.586 86.8209C391.408 93.8232 407.947 79.5222 430.819 72.1595C445.036 67.5978 457.105 69.0758 470.518 74.8966C487.587 82.3272 505.229 88.6764 523.312 93.8962C553.907 102.668 592.031 112.088 624.372 107.841C665.961 102.367 702.365 80.3752 743.779 73.9705" stroke="url(#paint35_linear_140_4815)" stroke-miterlimit="10"/>
<path d="M2.32422 69.2267C36.0557 70.2394 65.8533 89.2527 100.213 82.3052C129.928 76.2928 154.304 58.2557 183.659 51.404C214.105 44.3014 249.567 53.9996 279.194 60.7145C308.426 67.3427 336.704 76.562 365.698 83.7695C391.346 90.156 408.518 76.4388 431.57 69.7103C445.885 65.5363 458.047 67.1739 471.429 72.9035C488.379 80.2215 505.937 86.3766 523.95 91.3146C554.664 99.6854 592.479 108.134 624.727 103.837C666.007 98.3625 702.756 77.8803 743.778 71.2111" stroke="url(#paint36_linear_140_4815)" stroke-miterlimit="10"/>
<path d="M2.33496 66.166C36.2776 67.2152 66.1061 86.411 100.682 79.5593C130.413 73.6883 154.979 55.9614 184.37 49.3469C214.785 42.5043 250 52.198 279.627 58.8125C308.642 65.2993 336.9 74.254 365.864 80.791C391.336 86.5433 409.178 73.4648 432.42 67.4023C446.838 63.6434 459.087 65.4407 472.46 71.1429C489.286 78.3324 506.756 84.2724 524.692 88.9017C555.524 96.8437 592.958 104.252 625.134 99.9046C666.09 94.3986 703.168 75.513 743.799 68.6157" stroke="url(#paint37_linear_140_4815)" stroke-miterlimit="10"/>
<path d="M2.34473 63.1961C36.4984 64.2773 66.363 83.6555 101.243 76.9178C130.927 71.1792 155.699 53.7989 185.121 47.4353C215.5 40.8619 250.473 50.5327 280.033 57.015C308.837 63.3467 337.075 72.0048 365.976 77.8758C391.289 83.0214 409.836 70.577 433.259 65.2124C447.78 61.8778 460.127 63.8439 473.504 69.505C490.203 76.5507 507.58 82.2589 525.427 86.5613C556.461 94.0426 593.431 100.292 625.556 95.9539C666.192 90.4799 703.564 73.1818 743.809 66.0883" stroke="url(#paint38_linear_140_4815)" stroke-miterlimit="10"/>
<path d="M2.35547 60.2765C36.7563 61.4215 66.6775 80.9868 101.804 74.3768C131.484 68.7978 156.472 51.7643 185.914 45.6653C216.268 39.3838 250.978 48.9999 280.497 55.3727C309.085 61.5447 337.302 69.8744 366.126 75.0794C391.29 79.6411 410.568 67.8673 434.166 63.2188C448.794 60.3221 461.234 62.4981 474.632 68.0817C491.204 74.9694 508.485 80.4306 526.236 84.3899C557.46 91.3784 593.915 96.4283 625.999 92.0855C666.316 86.6342 703.956 70.9875 743.82 63.7298" stroke="url(#paint39_linear_140_4815)" stroke-miterlimit="10"/>
<path d="M2.36523 57.4528C37.0133 58.6571 66.9859 78.4094 102.406 71.9454C132.06 66.5306 157.249 49.8575 186.743 44.0367C217.055 38.0517 251.497 47.5994 280.971 53.8307C309.352 59.8294 337.533 67.8079 366.265 72.3468C391.299 76.3018 411.324 65.2396 435.102 61.2846C449.834 58.835 462.362 61.2253 475.806 66.7587C492.249 73.4752 509.429 78.6726 527.075 82.2686C558.484 88.728 594.383 92.5234 626.452 88.1989C666.455 82.8114 704.331 68.816 743.83 61.4123" stroke="url(#paint40_linear_140_4815)" stroke-miterlimit="10"/>
<path d="M2.37598 54.7156C37.266 55.9838 67.3159 75.9231 103.009 69.6142C132.668 64.3728 158.068 48.0692 187.598 42.5358C217.869 36.8655 252.038 46.3174 281.491 52.4028C309.672 58.2281 337.811 65.8234 366.451 69.7009C391.377 73.072 412.164 62.7306 436.112 59.5054C450.952 57.5028 463.567 60.1213 477.063 65.5725C493.378 72.1153 510.457 77.0443 527.992 80.2704C559.612 86.1688 594.899 88.6686 626.957 84.376C666.605 79.057 704.708 66.7495 743.841 59.2226" stroke="url(#paint41_linear_140_4815)" stroke-miterlimit="10"/>
<path d="M2.38574 52.0654C37.5281 53.402 67.6552 73.5055 103.642 67.3882C133.301 62.3293 158.912 46.3951 188.478 41.1628C218.708 35.8256 252.599 45.1589 282.016 51.0892C310.006 56.732 338.094 63.9213 366.61 67.1419C391.449 69.9474 412.992 60.3404 437.095 57.8451C452.027 56.2987 464.74 59.1543 478.287 64.5372C494.476 70.8938 511.452 75.5407 528.867 78.382C560.688 83.6873 595.351 84.8688 627.409 80.6081C666.769 75.3804 705.021 64.7744 743.814 57.138" stroke="url(#paint42_linear_140_4815)" stroke-miterlimit="10"/>
<path d="M2.39648 49.5108C37.7963 50.9158 68.0109 71.2247 104.286 65.2671C133.939 60.3906 159.777 44.8396 189.379 39.9312C219.558 34.9133 253.166 44.1417 282.577 49.9077C310.382 55.3818 338.409 62.1286 366.806 64.6968C391.598 66.9412 413.878 58.0823 438.167 56.3215C453.207 55.2312 465.971 58.3378 479.647 63.6476C495.711 69.8149 512.584 74.1734 529.871 76.6212C602.473 87.2455 673.618 69.3224 743.887 55.1811" stroke="url(#paint43_linear_140_4815)" stroke-miterlimit="10"/>
<path d="M2.40674 47.0383C38.0691 48.5209 68.3713 69.0076 104.945 63.2371C134.599 58.5567 160.658 43.3935 190.296 38.7725C220.423 34.0739 253.748 43.1882 283.097 48.7855C310.743 54.0725 338.687 60.3814 366.955 62.2836C391.743 63.9669 414.723 55.8972 439.191 54.848C454.319 54.2094 467.192 57.5851 480.945 62.8174C496.825 68.8982 513.688 72.7756 530.808 74.9196C601.562 83.7831 675.358 67.3289 743.871 53.2833" stroke="url(#paint44_linear_140_4815)" stroke-miterlimit="10"/>
<path d="M2.41699 44.6661C38.342 46.2262 68.7369 66.8909 105.609 61.3119C135.268 56.8094 161.544 42.0522 191.218 37.7414C221.293 33.3758 254.33 42.367 283.648 47.7772C311.144 52.8635 338.99 58.7254 367.13 60.0072C391.964 61.1385 415.593 53.8306 440.247 53.525C455.462 53.3379 468.417 56.9782 482.278 62.1467C498.055 68.0267 514.805 71.5712 531.781 73.332C564.123 76.6849 596.917 73.8293 628.991 69.7283C667.475 64.8061 706.015 59.4051 743.882 51.4813" stroke="url(#paint45_linear_140_4815)" stroke-miterlimit="10"/>
<path d="M2.42773 42.3897C38.3064 44 68.6601 64.7012 105.496 59.6011C135.037 55.4956 161.364 41.3131 190.806 37.0114C220.568 32.6641 252.94 41.2903 282.001 46.4998C310.094 51.5177 338.553 57.1241 367.311 57.8266C392.84 58.4516 417.715 51.5451 443.187 52.3525C458.562 52.8406 471.378 57.2929 485.471 62.2378C500.11 67.3743 515.568 70.3166 531.2 71.708C564.473 74.6685 597.474 70.303 630.35 66.1837C668.299 61.4304 706.587 57.7719 743.908 49.8253" stroke="url(#paint46_linear_140_4815)" stroke-miterlimit="10"/>
<path d="M2.43262 40.2141C38.5584 41.902 69.0357 62.7765 106.145 57.8726C135.69 53.9677 162.229 40.1594 191.717 36.1724C221.417 32.1763 253.532 40.6794 282.552 45.7201C310.511 50.5829 338.862 55.7559 367.47 55.7559C393.148 55.7559 418.574 49.7664 444.258 51.2946C459.654 52.2069 472.578 56.9146 486.779 61.7546C501.32 66.7087 516.674 69.3408 532.173 70.3809C565.554 72.6207 597.983 66.8592 630.855 62.854C668.556 58.2603 706.839 56.3034 743.897 48.2565" stroke="url(#paint47_linear_140_4815)" stroke-miterlimit="10"/>
<path d="M2.44287 38.143C38.8416 39.9084 69.3806 60.9516 106.804 56.2394C136.36 52.517 163.104 39.0964 192.634 35.4196C222.272 31.72 254.134 40.1638 283.139 45.0403C310.944 49.7252 339.186 54.4329 367.645 53.7669C393.509 53.1602 419.434 48.0693 445.334 50.3091C460.75 51.6457 473.777 56.6043 488.071 61.3394C502.489 66.1155 517.771 68.4374 533.125 69.1263C566.594 70.6362 598.488 63.5062 631.349 59.6105C668.813 55.1674 707.04 54.921 743.882 46.7738" stroke="url(#paint48_linear_140_4815)" stroke-miterlimit="10"/>
<path d="M2.45312 36.1765C39.1041 38.0012 69.7719 59.2224 107.458 54.7063C137.019 51.1618 163.969 38.1062 193.545 34.7578C223.121 31.4095 254.726 39.7393 283.654 44.447C311.392 48.9631 339.5 53.2283 367.805 51.8917C393.895 50.6601 420.263 46.4815 446.379 49.4238C461.826 51.1618 474.946 56.3896 489.374 61.0152C503.802 65.6408 518.888 67.6297 534.099 67.9764C567.568 68.7473 599.039 60.2808 631.864 56.4945C669.112 52.1974 707.308 53.6571 743.902 45.3913" stroke="url(#paint49_linear_140_4815)" stroke-miterlimit="10"/>
<path d="M2.45801 34.3157C39.3613 36.2316 70.1372 57.5805 108.091 53.2743C137.667 49.9031 164.813 37.2443 194.43 34.1789C223.924 31.1271 255.333 39.402 284.209 43.9501C311.865 48.302 339.819 52.1201 367.985 50.1267C394.332 48.2609 421.092 44.9902 447.44 48.6213C462.841 50.7471 476.115 56.2485 490.645 60.7692C504.908 65.2032 519.995 66.9093 535.041 66.923C568.51 66.9595 599.579 57.1974 632.358 53.5115C669.431 49.3421 707.534 52.5033 743.902 44.1052" stroke="url(#paint50_linear_140_4815)" stroke-miterlimit="10"/>
<path d="M2.46387 32.5687C39.6143 34.5485 70.4829 56.0753 108.71 51.9333C138.301 48.7401 165.643 36.4234 195.296 33.6863C224.759 30.9493 255.854 39.1604 284.735 43.5488C312.334 47.7274 340.149 51.1167 368.15 48.4755C394.781 45.9665 421.886 43.6036 448.475 47.9098C463.871 50.396 477.259 56.1757 491.897 60.5915C506.093 64.8704 521.051 66.2708 535.958 65.9606C569.375 65.2718 600.12 54.2598 632.853 50.6606C669.715 46.6097 707.72 51.4725 743.918 42.9056" stroke="url(#paint51_linear_140_4815)" stroke-miterlimit="10"/>
<path d="M2.47363 30.9309C39.8558 32.9791 70.8325 54.6519 109.311 50.6923C138.919 47.6405 166.466 35.7207 196.135 33.2437C225.536 30.7895 256.379 38.9869 285.245 43.2111C312.792 47.23 340.468 50.1951 368.309 46.9198C395.239 43.7539 422.678 42.2851 449.453 47.2528C464.833 50.1039 478.334 56.1573 493.102 60.4818C507.21 64.5874 522.091 65.7187 536.869 65.0937C570.199 63.6933 600.681 51.4861 633.357 47.9644C670.044 44.0094 707.936 50.5601 743.959 41.8243" stroke="url(#paint52_linear_140_4815)" stroke-miterlimit="10"/>
<path d="M2.47852 29.4071C40.0666 31.5192 71.1567 53.3471 109.883 49.5472C139.505 46.6368 167.207 35.0773 196.943 32.874C226.293 30.7026 256.909 38.8864 285.728 42.9646C313.24 46.8649 340.777 49.3829 368.453 45.4872C395.697 41.6554 423.383 41.0623 450.39 46.6733C465.739 49.8665 479.369 56.1936 494.234 60.4178C508.271 64.4047 523.069 65.2304 537.692 64.3089C570.904 62.2151 601.175 48.8811 633.789 45.4051C670.348 41.5231 708.085 49.7524 743.948 40.8069" stroke="url(#paint53_linear_140_4815)" stroke-miterlimit="10"/>
<path d="M2.4834 28.007C40.3084 30.1692 71.4808 52.1431 110.423 48.4937C140.071 45.7202 167.943 34.5029 197.71 32.5687C227.013 30.6664 257.393 38.8502 286.186 42.8007C313.672 46.5732 341.075 48.6716 368.597 44.1692C396.119 39.6668 424.078 39.9313 451.296 46.1627C466.609 49.6706 480.373 56.1985 495.32 60.4044C509.223 64.3229 524.042 64.8156 538.485 63.5976C571.563 60.8606 601.664 46.45 634.211 43.0196C670.61 39.1832 708.239 49.0776 743.948 39.8903" stroke="url(#paint54_linear_140_4815)" stroke-miterlimit="10"/>
<path d="M2.51465 26.7025C40.5456 28.9104 71.7849 51.0302 110.959 47.5223C140.597 44.881 168.634 34.0013 198.436 32.318C227.673 30.6667 257.857 38.8778 286.619 42.7142C314.089 46.3636 341.364 48.0651 368.726 42.9697C396.603 37.783 424.727 38.8641 452.141 45.7067C467.423 49.5112 481.305 56.2854 496.34 60.432C510.186 64.2502 524.928 64.4691 539.222 63.0048C554.818 61.4036 570.023 57.736 584.997 53.6669C601.155 49.2831 617.781 42.5956 634.613 40.8256C670.888 37.0075 708.389 48.5441 743.953 39.0831" stroke="url(#paint55_linear_140_4815)" stroke-miterlimit="10"/>
<path d="M2.51465 25.5618C40.731 27.8061 72.027 50.0674 111.428 46.678C141.091 44.1235 169.277 33.5448 199.116 32.1124C228.306 30.6937 258.274 38.955 287.01 42.6956C314.481 46.2629 341.647 47.563 368.85 41.8928C397.03 36.0173 425.34 37.883 452.954 45.3186C468.17 49.4242 482.17 56.4037 497.283 60.491C511.072 64.2179 525.747 64.1905 539.901 62.4753C555.467 60.5959 570.585 56.6089 585.471 52.2798C601.51 47.6178 618.162 40.5836 634.989 38.7999C671.151 34.9726 708.533 48.1287 743.959 38.3437" stroke="url(#paint56_linear_140_4815)" stroke-miterlimit="10"/>
<path d="M2.51465 24.5261C40.906 26.807 72.2844 49.2005 111.855 45.9115C141.539 43.4391 169.859 33.1797 199.724 31.9526C228.872 30.7529 258.639 39.11 287.355 42.7548C314.831 46.2354 341.899 47.1706 368.942 40.9301C397.448 34.3749 425.886 36.9751 453.696 44.9809C468.855 49.342 482.958 56.5358 498.148 60.5775C511.88 64.2269 526.467 63.9714 540.519 62.0327C556.049 59.8887 571.089 55.6007 585.898 51.0344C601.829 46.1214 618.502 38.777 635.329 36.966C671.372 33.0885 708.667 47.8457 743.974 37.7095" stroke="url(#paint57_linear_140_4815)" stroke-miterlimit="10"/>
<path d="M2.51465 23.6184C41.0657 25.8993 72.4955 48.4479 112.236 45.2365C141.956 42.8324 170.42 32.8559 200.316 31.8295C229.434 30.8259 259.015 39.3062 287.7 42.878C315.186 46.2948 342.177 46.8833 369.056 40.1091C397.854 32.8514 426.365 36.1358 454.37 44.6708C469.478 49.2827 483.674 56.6636 498.925 60.6688C512.611 64.2589 527.147 63.8027 541.065 61.6587C556.574 59.2684 571.532 54.7066 586.274 49.9214C602.117 44.7712 618.8 37.1759 635.648 35.3238C671.619 31.3642 708.821 47.6861 743.974 37.1485" stroke="url(#paint58_linear_140_4815)" stroke-miterlimit="10"/>
<path d="M2.51465 22.843C41.215 25.1239 72.6757 47.8139 112.571 44.6527C142.296 42.2988 170.889 32.5869 200.81 31.7202C229.897 30.8945 259.283 39.5253 287.968 43.0469C315.469 46.4226 342.409 46.6963 369.133 39.3976C398.23 31.4464 426.756 35.3513 454.968 44.4155C470.008 49.2509 484.286 56.8006 499.595 60.7784C513.24 64.3274 527.703 63.6979 541.523 61.3714C557.012 58.7575 571.903 53.9495 586.583 48.9635C602.354 43.6035 619.022 35.812 635.916 33.9098C671.81 29.827 708.966 47.6862 743.979 36.6833" stroke="url(#paint59_linear_140_4815)" stroke-miterlimit="10"/>
<path d="M2.51465 22.1948C41.0245 24.4757 72.3822 47.1658 112.045 44.2234C143.388 41.9015 173.685 31.4141 205.31 31.6285C232.348 31.811 259.478 39.68 286.187 43.0648C314.563 46.6594 341.724 46.559 369.205 38.8634C399.677 30.3512 428.229 34.8263 457.599 44.9488C470.765 49.4831 483.308 55.6688 496.572 59.9158C510.608 64.4091 526.02 63.9712 540.463 61.4759C556.852 58.6476 572.541 53.2648 587.999 47.7907C603.58 42.2528 620.144 34.4568 636.946 32.6321C672.474 28.7957 709.424 47.736 743.974 36.3134" stroke="url(#paint60_linear_140_4815)" stroke-miterlimit="10"/>
<path d="M2.51465 21.6841C41.1326 23.933 72.4904 46.7736 112.262 43.8267C143.614 41.5003 174.05 31.2592 205.666 31.6013C232.683 31.8978 259.674 39.9858 286.367 43.3751C314.764 46.9789 341.92 46.6231 369.267 38.4256C400.048 29.1927 428.45 34.1924 458.062 44.8121C471.167 49.5107 483.746 55.7511 497.046 60.0027C511.051 64.5005 526.395 63.9714 540.756 61.3347C557.135 58.3285 572.763 52.713 588.174 47.0929C603.734 41.4181 620.294 33.5355 637.136 31.6195C672.598 27.6143 709.589 47.9734 743.979 35.9988" stroke="url(#paint61_linear_140_4815)" stroke-miterlimit="10"/>
<path d="M2.51465 21.3192C41.2098 23.5317 72.5419 46.5091 112.426 43.5166C143.784 41.1628 174.287 31.1406 205.944 31.5922C232.95 31.9754 259.813 40.3234 286.496 43.7401C314.908 47.3895 342.105 46.8102 369.277 38.1201C400.357 28.1846 428.532 33.604 458.397 44.6707C471.47 49.5107 484.08 55.815 497.391 60.1168C511.386 64.6374 526.596 64.0672 540.947 61.3074C574.101 54.9209 603.806 34.9269 637.28 30.8943C672.68 26.6291 709.769 48.3612 743.979 35.7845" stroke="url(#paint62_linear_140_4815)" stroke-miterlimit="10"/>
<path d="M2.51465 21.087C41.2716 23.2539 72.5933 46.3682 112.524 43.3027C143.887 40.8895 174.493 31.0635 206.134 31.5881C233.146 32.0443 259.89 40.6842 286.563 44.1603C314.985 47.8644 342.275 47.1163 369.292 37.9563C400.645 27.3229 428.507 33.057 458.654 44.5708C471.62 49.5112 484.261 56.0573 497.602 60.1902C511.772 64.574 526.524 64.2182 541.029 61.3352C574.24 54.7298 603.781 34.7175 637.373 30.393C672.726 25.8312 709.975 48.8908 743.959 35.6481" stroke="url(#paint63_linear_140_4815)" stroke-miterlimit="10"/>
<path d="M2.51465 21C41.3128 23.103 72.5779 46.3541 112.55 43.1746C143.913 40.6793 174.56 31.0176 206.263 31.5832C233.28 32.0668 259.921 41.0716 286.588 44.6298C315.011 48.4206 342.445 47.5493 369.303 37.9286C400.897 26.6018 428.368 32.5412 458.804 44.4929C486.609 55.4046 509.517 67.8262 541.003 61.4306C574.302 54.6656 603.703 34.8221 637.414 30.1508C672.726 25.2561 710.17 49.561 744 35.6249" stroke="url(#paint64_linear_140_4815)" stroke-miterlimit="10"/>
<defs>
<linearGradient id="paint0_linear_140_4815" x1="534553" y1="1726.44" x2="534553" y2="631.527" gradientUnits="userSpaceOnUse">
<stop stop-color="#FF6F91"/>
<stop offset="1" stop-color="#FF1F54" stop-opacity="0.7"/>
</linearGradient>
<linearGradient id="paint1_linear_140_4815" x1="534553" y1="2374.65" x2="534553" y2="799.548" gradientUnits="userSpaceOnUse">
<stop stop-color="#FF6F91"/>
<stop offset="1" stop-color="#FF1F54" stop-opacity="0.7"/>
</linearGradient>
<linearGradient id="paint2_linear_140_4815" x1="534553" y1="3163.58" x2="534553" y2="1004.97" gradientUnits="userSpaceOnUse">
<stop stop-color="#FF6F91"/>
<stop offset="1" stop-color="#FF1F54" stop-opacity="0.7"/>
</linearGradient>
<linearGradient id="paint3_linear_140_4815" x1="534546" y1="3993.11" x2="534546" y2="1221.33" gradientUnits="userSpaceOnUse">
<stop stop-color="#FF6F91"/>
<stop offset="1" stop-color="#FF1F54" stop-opacity="0.7"/>
</linearGradient>
<linearGradient id="paint4_linear_140_4815" x1="534557" y1="4825.12" x2="534557" y2="1438.47" gradientUnits="userSpaceOnUse">
<stop stop-color="#FF6F91"/>
<stop offset="1" stop-color="#FF1F54" stop-opacity="0.7"/>
</linearGradient>
<linearGradient id="paint5_linear_140_4815" x1="534542" y1="5616" x2="534542" y2="1644.75" gradientUnits="userSpaceOnUse">
<stop stop-color="#FF6F91"/>
<stop offset="1" stop-color="#FF1F54" stop-opacity="0.7"/>
</linearGradient>
<linearGradient id="paint6_linear_140_4815" x1="534553" y1="6400.55" x2="534553" y2="1849.17" gradientUnits="userSpaceOnUse">
<stop stop-color="#FF6F91"/>
<stop offset="1" stop-color="#FF1F54" stop-opacity="0.7"/>
</linearGradient>
<linearGradient id="paint7_linear_140_4815" x1="534553" y1="7003.04" x2="534553" y2="2005.43" gradientUnits="userSpaceOnUse">
<stop stop-color="#FF6F91"/>
<stop offset="1" stop-color="#FF1F54" stop-opacity="0.7"/>
</linearGradient>
<linearGradient id="paint8_linear_140_4815" x1="534553" y1="7449.3" x2="534553" y2="2120.17" gradientUnits="userSpaceOnUse">
<stop stop-color="#FF6F91"/>
<stop offset="1" stop-color="#FF1F54" stop-opacity="0.7"/>
</linearGradient>
<linearGradient id="paint9_linear_140_4815" x1="534568" y1="7687.33" x2="534568" y2="2179.51" gradientUnits="userSpaceOnUse">
<stop stop-color="#FF6F91"/>
<stop offset="1" stop-color="#FF1F54" stop-opacity="0.7"/>
</linearGradient>
<linearGradient id="paint10_linear_140_4815" x1="534553" y1="7792.73" x2="534553" y2="2203.33" gradientUnits="userSpaceOnUse">
<stop stop-color="#FF6F91"/>
<stop offset="1" stop-color="#FF1F54" stop-opacity="0.7"/>
</linearGradient>
<linearGradient id="paint11_linear_140_4815" x1="534542" y1="7899.58" x2="534542" y2="2227.52" gradientUnits="userSpaceOnUse">
<stop stop-color="#FF6F91"/>
<stop offset="1" stop-color="#FF1F54" stop-opacity="0.7"/>
</linearGradient>
<linearGradient id="paint12_linear_140_4815" x1="534546" y1="7959.85" x2="534546" y2="2239.62" gradientUnits="userSpaceOnUse">
<stop stop-color="#FF6F91"/>
<stop offset="1" stop-color="#FF1F54" stop-opacity="0.7"/>
</linearGradient>
<linearGradient id="paint13_linear_140_4815" x1="534565" y1="7976.85" x2="534565" y2="2240.45" gradientUnits="userSpaceOnUse">
<stop stop-color="#FF6F91"/>
<stop offset="1" stop-color="#FF1F54" stop-opacity="0.7"/>
</linearGradient>
<linearGradient id="paint14_linear_140_4815" x1="534554" y1="7955.98" x2="534554" y2="2231.44" gradientUnits="userSpaceOnUse">
<stop stop-color="#FF6F91"/>
<stop offset="1" stop-color="#FF1F54" stop-opacity="0.7"/>
</linearGradient>
<linearGradient id="paint15_linear_140_4815" x1="534554" y1="7900.79" x2="534554" y2="2213.52" gradientUnits="userSpaceOnUse">
<stop stop-color="#FF6F91"/>
<stop offset="1" stop-color="#FF1F54" stop-opacity="0.7"/>
</linearGradient>
<linearGradient id="paint16_linear_140_4815" x1="534557" y1="7774.69" x2="534557" y2="2177.11" gradientUnits="userSpaceOnUse">
<stop stop-color="#FF6F91"/>
<stop offset="1" stop-color="#FF1F54" stop-opacity="0.7"/>
</linearGradient>
<linearGradient id="paint17_linear_140_4815" x1="534561" y1="7690.19" x2="534561" y2="2151.7" gradientUnits="userSpaceOnUse">
<stop stop-color="#FF6F91"/>
<stop offset="1" stop-color="#FF1F54" stop-opacity="0.7"/>
</linearGradient>
<linearGradient id="paint18_linear_140_4815" x1="534539" y1="7588.17" x2="534539" y2="2121.77" gradientUnits="userSpaceOnUse">
<stop stop-color="#FF6F91"/>
<stop offset="1" stop-color="#FF1F54" stop-opacity="0.7"/>
</linearGradient>
<linearGradient id="paint19_linear_140_4815" x1="534554" y1="7479.89" x2="534554" y2="2090.29" gradientUnits="userSpaceOnUse">
<stop stop-color="#FF6F91"/>
<stop offset="1" stop-color="#FF1F54" stop-opacity="0.7"/>
</linearGradient>
<linearGradient id="paint20_linear_140_4815" x1="534568" y1="7365.4" x2="534568" y2="2057.26" gradientUnits="userSpaceOnUse">
<stop stop-color="#FF6F91"/>
<stop offset="1" stop-color="#FF1F54" stop-opacity="0.7"/>
</linearGradient>
<linearGradient id="paint21_linear_140_4815" x1="534546" y1="7249.4" x2="534546" y2="2023.88" gradientUnits="userSpaceOnUse">
<stop stop-color="#FF6F91"/>
<stop offset="1" stop-color="#FF1F54" stop-opacity="0.7"/>
</linearGradient>
<linearGradient id="paint22_linear_140_4815" x1="534554" y1="7098.38" x2="534554" y2="1981.35" gradientUnits="userSpaceOnUse">
<stop stop-color="#FF6F91"/>
<stop offset="1" stop-color="#FF1F54" stop-opacity="0.7"/>
</linearGradient>
<linearGradient id="paint23_linear_140_4815" x1="534539" y1="6990.29" x2="534539" y2="1950.17" gradientUnits="userSpaceOnUse">
<stop stop-color="#FF6F91"/>
<stop offset="1" stop-color="#FF1F54" stop-opacity="0.7"/>
</linearGradient>
<linearGradient id="paint24_linear_140_4815" x1="534542" y1="6893.96" x2="534542" y2="1922.1" gradientUnits="userSpaceOnUse">
<stop stop-color="#FF6F91"/>
<stop offset="1" stop-color="#FF1F54" stop-opacity="0.7"/>
</linearGradient>
<linearGradient id="paint25_linear_140_4815" x1="534539" y1="6818.25" x2="534539" y2="1899.51" gradientUnits="userSpaceOnUse">
<stop stop-color="#FF6F91"/>
<stop offset="1" stop-color="#FF1F54" stop-opacity="0.7"/>
</linearGradient>
<linearGradient id="paint26_linear_140_4815" x1="534568" y1="6752.94" x2="534568" y2="1879.63" gradientUnits="userSpaceOnUse">
<stop stop-color="#FF6F91"/>
<stop offset="1" stop-color="#FF1F54" stop-opacity="0.7"/>
</linearGradient>
<linearGradient id="paint27_linear_140_4815" x1="534554" y1="6720.55" x2="534554" y2="1868.43" gradientUnits="userSpaceOnUse">
<stop stop-color="#FF6F91"/>
<stop offset="1" stop-color="#FF1F54" stop-opacity="0.7"/>
</linearGradient>
<linearGradient id="paint28_linear_140_4815" x1="534554" y1="6705.01" x2="534554" y2="1861.66" gradientUnits="userSpaceOnUse">
<stop stop-color="#FF6F91"/>
<stop offset="1" stop-color="#FF1F54" stop-opacity="0.7"/>
</linearGradient>
<linearGradient id="paint29_linear_140_4815" x1="534565" y1="6662.23" x2="534565" y2="1847.68" gradientUnits="userSpaceOnUse">
<stop stop-color="#FF6F91"/>
<stop offset="1" stop-color="#FF1F54" stop-opacity="0.7"/>
</linearGradient>
<linearGradient id="paint30_linear_140_4815" x1="534554" y1="6597.95" x2="534554" y2="1828.03" gradientUnits="userSpaceOnUse">
<stop stop-color="#FF6F91"/>
<stop offset="1" stop-color="#FF1F54" stop-opacity="0.7"/>
</linearGradient>
<linearGradient id="paint31_linear_140_4815" x1="534565" y1="6504.17" x2="534565" y2="1800.56" gradientUnits="userSpaceOnUse">
<stop stop-color="#FF6F91"/>
<stop offset="1" stop-color="#FF1F54" stop-opacity="0.7"/>
</linearGradient>
<linearGradient id="paint32_linear_140_4815" x1="534554" y1="6391.85" x2="534554" y2="1768.23" gradientUnits="userSpaceOnUse">
<stop stop-color="#FF6F91"/>
<stop offset="1" stop-color="#FF1F54" stop-opacity="0.7"/>
</linearGradient>
<linearGradient id="paint33_linear_140_4815" x1="534565" y1="6257.56" x2="534565" y2="1730.09" gradientUnits="userSpaceOnUse">
<stop stop-color="#FF6F91"/>
<stop offset="1" stop-color="#FF1F54" stop-opacity="0.7"/>
</linearGradient>
<linearGradient id="paint34_linear_140_4815" x1="534550" y1="6107.86" x2="534550" y2="1687.92" gradientUnits="userSpaceOnUse">
<stop stop-color="#FF6F91"/>
<stop offset="1" stop-color="#FF1F54" stop-opacity="0.7"/>
</linearGradient>
<linearGradient id="paint35_linear_140_4815" x1="534554" y1="5938.34" x2="534554" y2="1640.52" gradientUnits="userSpaceOnUse">
<stop stop-color="#FF6F91"/>
<stop offset="1" stop-color="#FF1F54" stop-opacity="0.7"/>
</linearGradient>
<linearGradient id="paint36_linear_140_4815" x1="534546" y1="5750.19" x2="534546" y2="1588.21" gradientUnits="userSpaceOnUse">
<stop stop-color="#FF6F91"/>
<stop offset="1" stop-color="#FF1F54" stop-opacity="0.7"/>
</linearGradient>
<linearGradient id="paint37_linear_140_4815" x1="534554" y1="5556.13" x2="534554" y2="1534.42" gradientUnits="userSpaceOnUse">
<stop stop-color="#FF6F91"/>
<stop offset="1" stop-color="#FF1F54" stop-opacity="0.7"/>
</linearGradient>
<linearGradient id="paint38_linear_140_4815" x1="534554" y1="5346.4" x2="534554" y2="1476.51" gradientUnits="userSpaceOnUse">
<stop stop-color="#FF6F91"/>
<stop offset="1" stop-color="#FF1F54" stop-opacity="0.7"/>
</linearGradient>
<linearGradient id="paint39_linear_140_4815" x1="534554" y1="5135.06" x2="534554" y2="1418.26" gradientUnits="userSpaceOnUse">
<stop stop-color="#FF6F91"/>
<stop offset="1" stop-color="#FF1F54" stop-opacity="0.7"/>
</linearGradient>
<linearGradient id="paint40_linear_140_4815" x1="534554" y1="4912.67" x2="534554" y2="1357.14" gradientUnits="userSpaceOnUse">
<stop stop-color="#FF6F91"/>
<stop offset="1" stop-color="#FF1F54" stop-opacity="0.7"/>
</linearGradient>
<linearGradient id="paint41_linear_140_4815" x1="534554" y1="4691.28" x2="534554" y2="1296.38" gradientUnits="userSpaceOnUse">
<stop stop-color="#FF6F91"/>
<stop offset="1" stop-color="#FF1F54" stop-opacity="0.7"/>
</linearGradient>
<linearGradient id="paint42_linear_140_4815" x1="534528" y1="4474.56" x2="534528" y2="1236.98" gradientUnits="userSpaceOnUse">
<stop stop-color="#FF6F91"/>
<stop offset="1" stop-color="#FF1F54" stop-opacity="0.7"/>
</linearGradient>
<linearGradient id="paint43_linear_140_4815" x1="534572" y1="4242.44" x2="534572" y2="1173.52" gradientUnits="userSpaceOnUse">
<stop stop-color="#FF6F91"/>
<stop offset="1" stop-color="#FF1F54" stop-opacity="0.7"/>
</linearGradient>
<linearGradient id="paint44_linear_140_4815" x1="534554" y1="4099.33" x2="534554" y2="1134.14" gradientUnits="userSpaceOnUse">
<stop stop-color="#FF6F91"/>
<stop offset="1" stop-color="#FF1F54" stop-opacity="0.7"/>
</linearGradient>
<linearGradient id="paint45_linear_140_4815" x1="534554" y1="3922.97" x2="534554" y2="1085.87" gradientUnits="userSpaceOnUse">
<stop stop-color="#FF6F91"/>
<stop offset="1" stop-color="#FF1F54" stop-opacity="0.7"/>
</linearGradient>
<linearGradient id="paint46_linear_140_4815" x1="534565" y1="3782.79" x2="534565" y2="1047.47" gradientUnits="userSpaceOnUse">
<stop stop-color="#FF6F91"/>
<stop offset="1" stop-color="#FF1F54" stop-opacity="0.7"/>
</linearGradient>
<linearGradient id="paint47_linear_140_4815" x1="534554" y1="3669.4" x2="534554" y2="1016.35" gradientUnits="userSpaceOnUse">
<stop stop-color="#FF6F91"/>
<stop offset="1" stop-color="#FF1F54" stop-opacity="0.7"/>
</linearGradient>
<linearGradient id="paint48_linear_140_4815" x1="534535" y1="3575.11" x2="534535" y2="990.44" gradientUnits="userSpaceOnUse">
<stop stop-color="#FF6F91"/>
<stop offset="1" stop-color="#FF1F54" stop-opacity="0.7"/>
</linearGradient>
<linearGradient id="paint49_linear_140_4815" x1="534543" y1="3494.92" x2="534543" y2="968.406" gradientUnits="userSpaceOnUse">
<stop stop-color="#FF6F91"/>
<stop offset="1" stop-color="#FF1F54" stop-opacity="0.7"/>
</linearGradient>
<linearGradient id="paint50_linear_140_4815" x1="534539" y1="3429.68" x2="534539" y2="950.453" gradientUnits="userSpaceOnUse">
<stop stop-color="#FF6F91"/>
<stop offset="1" stop-color="#FF1F54" stop-opacity="0.7"/>
</linearGradient>
<linearGradient id="paint51_linear_140_4815" x1="534546" y1="3431.73" x2="534546" y2="950.311" gradientUnits="userSpaceOnUse">
<stop stop-color="#FF6F91"/>
<stop offset="1" stop-color="#FF1F54" stop-opacity="0.7"/>
</linearGradient>
<linearGradient id="paint52_linear_140_4815" x1="534569" y1="3520.58" x2="534569" y2="973.106" gradientUnits="userSpaceOnUse">
<stop stop-color="#FF6F91"/>
<stop offset="1" stop-color="#FF1F54" stop-opacity="0.7"/>
</linearGradient>
<linearGradient id="paint53_linear_140_4815" x1="534558" y1="3612.65" x2="534558" y2="996.85" gradientUnits="userSpaceOnUse">
<stop stop-color="#FF6F91"/>
<stop offset="1" stop-color="#FF1F54" stop-opacity="0.7"/>
</linearGradient>
<linearGradient id="paint54_linear_140_4815" x1="534554" y1="3706.34" x2="534554" y2="1021.12" gradientUnits="userSpaceOnUse">
<stop stop-color="#FF6F91"/>
<stop offset="1" stop-color="#FF1F54" stop-opacity="0.7"/>
</linearGradient>
<linearGradient id="paint55_linear_140_4815" x1="534535" y1="3802.72" x2="534535" y2="1046.19" gradientUnits="userSpaceOnUse">
<stop stop-color="#FF6F91"/>
<stop offset="1" stop-color="#FF1F54" stop-opacity="0.7"/>
</linearGradient>
<linearGradient id="paint56_linear_140_4815" x1="534539" y1="3892.05" x2="534539" y2="1069.48" gradientUnits="userSpaceOnUse">
<stop stop-color="#FF6F91"/>
<stop offset="1" stop-color="#FF1F54" stop-opacity="0.7"/>
</linearGradient>
<linearGradient id="paint57_linear_140_4815" x1="534550" y1="3979.39" x2="534550" y2="1092.3" gradientUnits="userSpaceOnUse">
<stop stop-color="#FF6F91"/>
<stop offset="1" stop-color="#FF1F54" stop-opacity="0.7"/>
</linearGradient>
<linearGradient id="paint58_linear_140_4815" x1="534550" y1="4059.95" x2="534550" y2="1113.39" gradientUnits="userSpaceOnUse">
<stop stop-color="#FF6F91"/>
<stop offset="1" stop-color="#FF1F54" stop-opacity="0.7"/>
</linearGradient>
<linearGradient id="paint59_linear_140_4815" x1="534554" y1="4133.89" x2="534554" y2="1132.79" gradientUnits="userSpaceOnUse">
<stop stop-color="#FF6F91"/>
<stop offset="1" stop-color="#FF1F54" stop-opacity="0.7"/>
</linearGradient>
<linearGradient id="paint60_linear_140_4815" x1="534550" y1="4204.78" x2="534550" y2="1151.46" gradientUnits="userSpaceOnUse">
<stop stop-color="#FF6F91"/>
<stop offset="1" stop-color="#FF1F54" stop-opacity="0.7"/>
</linearGradient>
<linearGradient id="paint61_linear_140_4815" x1="534554" y1="4258.13" x2="534554" y2="1165.49" gradientUnits="userSpaceOnUse">
<stop stop-color="#FF6F91"/>
<stop offset="1" stop-color="#FF1F54" stop-opacity="0.7"/>
</linearGradient>
<linearGradient id="paint62_linear_140_4815" x1="534554" y1="4304.48" x2="534554" y2="1177.73" gradientUnits="userSpaceOnUse">
<stop stop-color="#FF6F91"/>
<stop offset="1" stop-color="#FF1F54" stop-opacity="0.7"/>
</linearGradient>
<linearGradient id="paint63_linear_140_4815" x1="534539" y1="4332.79" x2="534539" y2="1185.21" gradientUnits="userSpaceOnUse">
<stop stop-color="#FF6F91"/>
<stop offset="1" stop-color="#FF1F54" stop-opacity="0.7"/>
</linearGradient>
<linearGradient id="paint64_linear_140_4815" x1="534569" y1="4309.2" x2="534569" y2="1178.78" gradientUnits="userSpaceOnUse">
<stop stop-color="#FF6F91"/>
<stop offset="1" stop-color="#FF1F54" stop-opacity="0.7"/>
</linearGradient>
</defs>
</svg>
