<svg width="746" height="251" viewBox="0 0 746 251" fill="none" xmlns="http://www.w3.org/2000/svg">
<rect x="0.5" y="0.5" width="745" height="265" rx="5.5" fill="#218B53" stroke="#218B53"/>
<path d="M2 249.525C37.4616 249.525 72.9334 249.767 108.39 249.648C140.077 249.543 171.692 247.267 203.369 246.874C262.378 246.145 321.376 246.993 380.379 246.131C432.75 245.365 485.661 243.335 537.996 246.432C568.499 248.257 598.688 249.087 629.217 249.84C667.32 250.779 705.377 248.229 743.465 249.525" stroke="url(#paint0_linear_747_2)" stroke-miterlimit="10"/>
<path d="M2 242.928C36.9518 242.928 71.9963 243.448 106.938 242.887C139.773 242.358 172.418 238.649 205.228 237.696C264.35 235.976 323.008 240.889 382.068 240.013C434.037 239.256 485.27 233.107 537.296 238.608C567.707 241.824 597.175 244.342 627.806 245.077C666.424 245.989 704.852 241.551 743.465 242.928" stroke="url(#paint1_linear_747_2)" stroke-miterlimit="10"/>
<path d="M2 236.46C36.3185 236.46 70.8893 237.29 105.182 236.145C139.475 235 173.278 229.731 207.468 228.03C238.548 226.483 269.19 226.898 300.105 230.265C327.812 233.285 354.726 235.465 382.66 235.137C407.143 234.845 430.083 231.551 454.262 228.481C481.934 224.964 510.423 226.606 537.837 231.086C568.01 236.022 596.469 240.743 627.281 241.282C666.146 241.966 704.574 235.278 743.465 236.46" stroke="url(#paint2_linear_747_2)" stroke-miterlimit="10"/>
<path d="M2 230.082C35.577 230.082 69.6638 231.2 103.184 229.412C139.001 227.505 174.21 220.598 209.95 218.007C240.636 215.754 271.527 217.298 301.732 222.596C328.698 227.259 354.767 231.423 382.33 231.232C407.854 231.054 430.948 225.329 455.725 220.699C483.849 215.444 511.68 217.437 539.376 223.81C569.061 230.652 596.464 238.024 627.487 238.22C666.419 238.471 704.466 229.316 743.465 230.087" stroke="url(#paint3_linear_747_2)" stroke-miterlimit="10"/>
<path d="M2 223.805C34.7841 223.778 68.3714 225.174 101.042 222.733C138.548 219.955 175.189 211.384 212.555 207.803C243.913 204.801 272.892 207.593 303.138 215.134C329.032 221.593 354.113 228.062 381.275 228.075C408.132 228.075 432.024 219.476 457.512 213.199C486.547 206.051 513.322 208.131 541.694 216.767C570.569 225.553 597.082 235.926 628.275 235.698C667.15 235.388 704.481 223.596 743.465 223.805" stroke="url(#paint4_linear_747_2)" stroke-miterlimit="10"/>
<path d="M2 217.629C33.9551 217.588 67.0378 219.139 98.8023 216.137C138.028 212.433 176.038 202.206 215.125 197.589C246.92 193.835 274.519 197.849 304.276 207.894C328.826 216.183 352.939 225.165 379.658 225.448C407.895 225.749 433.352 213.939 459.468 205.988C489.626 196.805 515.377 198.757 544.52 209.947C572.274 220.603 598.153 234.284 629.48 233.518C668.216 232.569 704.563 218.067 743.454 217.629" stroke="url(#paint5_linear_747_2)" stroke-miterlimit="10"/>
<path d="M2 211.553C33.1364 211.498 65.7042 213.149 96.6088 209.651C137.513 205.02 176.898 193.187 217.612 187.54C250.051 183.037 276.084 188.192 305.213 200.883C328.25 210.919 351.389 222.51 377.737 223.121C407.355 223.801 434.856 208.46 461.574 199.031C475.569 194.118 490.321 189.515 505.578 190.573C520.51 191.613 534.65 197.183 547.708 203.346C574.03 215.74 599.672 232.801 630.994 231.497C669.56 229.886 704.692 212.684 743.47 211.566" stroke="url(#paint6_linear_747_2)" stroke-miterlimit="10"/>
<path d="M2.02563 205.581C32.4051 205.513 64.4425 207.205 94.5027 203.3C136.967 197.799 177.583 184.438 219.805 177.814C252.986 172.604 277.516 178.804 305.856 194.108C327.343 205.714 349.515 219.896 375.626 220.858C406.52 221.994 436.385 203.045 463.613 192.32C477.876 186.7 493.606 180.774 509.538 182.079C524.47 183.302 538.46 189.98 550.946 196.905C575.842 210.718 601.222 231.223 632.621 229.393C671.022 227.149 704.8 207.333 743.475 205.581" stroke="url(#paint7_linear_747_2)" stroke-miterlimit="10"/>
<path d="M2.03076 199.715C31.6842 199.633 63.2479 201.325 92.5409 197.133C136.39 190.852 178.098 176.081 221.628 168.572C238.203 165.717 253.912 164.065 270.147 169.074C283.375 173.157 295.012 180.323 306.237 187.567C326.319 200.518 347.517 217.127 373.566 218.427C405.593 220.029 437.857 197.644 465.528 185.825C480.039 179.625 496.737 172.445 513.276 173.964C528.275 175.333 542.08 183.028 554.03 190.628C577.603 205.609 602.679 229.321 634.248 227.026C672.51 224.239 704.888 201.969 743.495 199.692" stroke="url(#paint8_linear_747_2)" stroke-miterlimit="10"/>
<path d="M2.03638 193.944C31.0668 193.858 62.2031 195.541 90.8216 191.157C135.783 184.269 178.284 168.23 222.91 160.014C239.542 156.953 255.205 155.056 271.358 160.739C284.462 165.379 295.631 173.339 306.31 181.295C325.212 195.359 345.525 214.052 371.703 215.626C388.432 216.634 405.254 208.902 419.702 202.356C435.731 195.094 451.142 186.819 467.166 179.548C481.893 172.869 499.399 164.676 516.494 166.387C531.602 167.897 545.19 176.377 556.714 184.543C579.205 200.509 603.807 226.903 635.68 224.23C673.875 221.037 704.898 196.549 743.501 193.926" stroke="url(#paint9_linear_747_2)" stroke-miterlimit="10"/>
<path d="M2.0415 188.279C30.5518 188.192 61.3587 189.88 89.4262 185.414C135.181 178.138 178.175 161.004 223.549 152.278C240.103 149.084 255.885 147.045 271.873 153.135C284.962 158.121 295.795 166.766 306.088 175.269C324.203 190.227 343.749 210.472 370.246 212.219C387.433 213.341 404.744 204.966 419.419 198.041C435.984 190.218 451.858 181.313 468.423 173.481C483.355 166.414 501.377 157.578 518.93 159.38C534.197 160.95 547.553 169.959 558.763 178.594C580.559 195.377 604.409 223.664 636.792 220.813C674.988 217.451 704.826 190.998 743.506 188.297" stroke="url(#paint10_linear_747_2)" stroke-miterlimit="10"/>
<path d="M2.05151 182.714C30.1602 182.641 60.7765 184.361 88.4321 179.931C134.573 172.541 177.686 154.509 223.41 145.545C239.737 142.352 255.813 140.272 271.574 146.403C284.771 151.535 295.455 160.644 305.558 169.508C323.384 185.173 342.353 206.23 369.406 207.927C386.975 209.031 404.332 200.569 419.213 193.329C436.127 185.118 452.296 175.757 469.205 167.537C484.328 160.184 502.427 151.206 520.34 152.994C535.787 154.536 548.918 163.71 559.988 172.715C581.614 190.3 604.327 219.304 637.466 216.48C675.76 213.218 704.697 185.136 743.537 182.723" stroke="url(#paint11_linear_747_2)" stroke-miterlimit="10"/>
<path d="M2.05713 177.239C30.0629 177.084 60.5813 179.018 88.1185 174.502C133.945 166.971 176.507 148.4 221.87 139.226C238.152 135.937 254.217 133.967 269.968 140.025C283.355 145.184 294.251 154.403 304.503 163.376C322.658 179.269 341.828 200.595 369.237 202.584C386.929 203.866 404.183 195.509 419.131 188.156C436.071 179.817 452.208 170.274 469.144 161.93C484.339 154.44 502.345 145.586 520.392 147.501C535.943 149.153 548.995 158.345 560.086 167.45C581.8 185.282 604.08 213.902 637.482 211.243C675.884 208.195 704.523 179.347 743.522 177.239" stroke="url(#paint12_linear_747_2)" stroke-miterlimit="10"/>
<path d="M2.06152 171.888C30.1857 171.605 60.6115 174.046 88.2465 169.215C133.26 161.346 174.864 142.469 219.398 132.972C235.875 129.455 251.518 127.625 267.496 133.725C281.125 138.92 292.407 148.044 303.034 156.939C321.792 172.659 341.771 194.199 369.179 196.914C386.763 198.656 404.079 190.276 418.898 182.927C435.633 174.63 451.528 165.077 468.257 156.77C483.421 149.239 501.428 140.453 519.449 142.729C534.953 144.686 548.196 154.011 559.442 163.015C581.269 180.487 604.193 208.569 637.193 205.987C675.687 202.972 704.419 173.959 743.511 171.888" stroke="url(#paint13_linear_747_2)" stroke-miterlimit="10"/>
<path d="M2.07178 166.629C30.3556 166.292 60.699 169.412 88.5039 164.298C132.6 156.187 173.118 137.065 216.715 127.348C233.331 123.635 248.609 121.979 264.766 128C278.607 133.16 290.342 142.046 301.366 150.873C320.752 166.383 341.652 187.846 369.035 191.217C386.459 193.366 403.642 185.159 418.327 177.842C434.778 169.631 450.339 160.138 466.78 151.931C481.897 144.386 499.733 135.851 517.673 138.451C533.192 140.705 546.672 150.07 558.17 158.979C580.285 176.086 603.961 203.465 636.709 200.92C675.373 197.918 704.264 168.718 743.526 166.657" stroke="url(#paint14_linear_747_2)" stroke-miterlimit="10"/>
<path d="M2.08228 161.47C30.5617 161.146 60.8897 165.092 88.8903 159.718C131.978 151.457 171.316 132.138 213.889 122.253C230.572 118.38 245.561 116.925 261.852 122.773C275.94 127.827 288.113 136.458 299.564 145.125C319.759 160.357 341.39 181.51 368.85 185.501C386.068 188.001 402.947 180.15 417.488 172.883C433.579 164.836 448.743 155.426 464.823 147.37C479.884 139.82 497.375 131.709 515.207 134.597C530.798 137.128 544.556 146.457 556.399 155.243C578.957 171.971 603.477 198.511 636.05 195.979C674.951 192.955 704.064 163.559 743.562 161.484" stroke="url(#paint15_linear_747_2)" stroke-miterlimit="10"/>
<path d="M2.08789 156.41C30.799 156.155 61.1167 161.05 89.3696 155.443C131.376 147.109 169.463 127.617 210.939 117.677C227.612 113.672 242.394 112.426 258.768 118.019C273.109 122.918 285.708 131.248 297.628 139.651C318.74 154.536 341.03 175.182 368.593 179.748C401.856 185.263 435.469 156.561 462.424 143.031C477.428 135.495 494.446 127.945 512.123 131.107C527.838 133.921 541.884 143.159 554.134 151.812C577.264 168.148 602.7 193.739 635.19 191.194C674.38 188.128 703.771 158.518 743.552 156.41" stroke="url(#paint16_linear_747_2)" stroke-miterlimit="10"/>
<path d="M2.09814 151.457C31.0616 151.315 61.3844 157.259 89.9308 151.457C130.809 143.118 167.584 123.534 207.906 113.562C224.522 109.457 239.161 108.435 255.581 113.704C270.184 118.398 283.221 126.358 295.61 134.496C317.638 148.957 340.592 168.914 368.294 174.046C401.052 180.104 433.219 152.232 459.674 138.921C474.303 131.572 491.357 124.164 508.549 127.95C524.511 131.462 538.573 139.979 551.518 148.647C575.312 164.567 601.727 189.123 634.217 186.55C673.741 183.425 703.446 153.591 743.563 151.425" stroke="url(#paint17_linear_747_2)" stroke-miterlimit="10"/>
<path d="M2.10791 146.598C31.3443 146.598 61.698 153.683 90.5636 147.666C130.278 139.386 165.704 119.72 204.837 109.803C272.804 92.5645 308.261 156.205 367.964 168.385C400.146 174.959 430.685 148.09 456.662 135.048C471.223 127.749 487.618 121.103 504.594 125.103C520.757 128.912 535.149 137.242 548.614 145.745C573.149 161.255 600.588 184.693 633.146 182.079C673.036 178.886 703.091 148.82 743.578 146.598" stroke="url(#paint18_linear_747_2)" stroke-miterlimit="10"/>
<path d="M2.11816 141.845C31.6377 142.037 62.0429 150.284 91.2535 144.089C129.784 135.919 163.855 116.208 201.768 106.378C268.33 89.125 308.868 149.714 367.609 162.765C399.234 169.799 427.94 144.121 453.443 131.33C467.943 124.059 483.622 118.288 500.357 122.471C516.736 126.577 531.493 134.697 545.498 143.022C570.821 158.076 599.306 180.387 632.003 177.714C672.284 174.425 702.715 144.14 743.593 141.845" stroke="url(#paint19_linear_747_2)" stroke-miterlimit="10"/>
<path d="M2.12842 137.192C31.9415 137.58 62.4085 147.032 91.9846 140.682C129.336 132.662 162.012 112.928 198.75 103.23C263.901 86.0278 309.455 143.305 367.243 157.227C398.302 164.709 425.057 140.294 450.112 127.754C464.56 120.524 479.462 115.679 495.939 119.999C512.544 124.374 527.683 132.316 542.244 140.436C568.381 155.033 597.916 176.181 630.777 173.449C671.455 170.06 702.287 139.546 743.572 137.174" stroke="url(#paint20_linear_747_2)" stroke-miterlimit="10"/>
<path d="M2.13892 132.639C32.2403 133.228 62.7948 143.889 92.7624 137.406C128.96 129.569 160.287 109.826 195.841 100.292C259.607 83.1901 310.032 137.028 366.873 151.785C397.37 159.704 422.117 136.59 446.745 124.291C461.131 117.107 475.307 113.215 491.511 117.69C508.348 122.343 523.883 130.085 538.99 138.004C565.945 152.145 596.521 172.126 629.588 169.325C670.693 165.84 701.906 135.112 743.603 132.639" stroke="url(#paint21_linear_747_2)" stroke-miterlimit="10"/>
<path d="M2.14917 128.191C32.5286 128.976 63.1861 140.818 93.4986 134.227C128.584 126.595 158.588 106.856 193.009 97.5091C255.514 80.5395 310.614 130.874 366.533 146.457C396.474 154.805 419.207 132.99 443.434 120.911C457.758 113.772 471.239 110.834 487.134 115.437C504.203 120.373 520.129 127.936 535.777 135.636C563.525 149.294 595.12 168.148 628.414 165.287C669.931 161.706 701.53 130.728 743.634 128.2" stroke="url(#paint22_linear_747_2)" stroke-miterlimit="10"/>
<path d="M2.15942 123.84C32.8427 124.812 63.5723 137.79 94.2555 131.107C128.286 123.694 157.023 103.969 190.373 94.8227C251.678 78.0081 311.185 124.848 366.167 141.257C395.609 150.042 416.309 129.437 440.2 117.599C454.479 110.529 467.253 108.476 482.881 113.211C500.171 118.43 516.484 125.842 532.641 133.319C561.152 146.507 593.719 164.252 627.245 161.319C669.153 157.647 701.124 126.445 743.614 123.84" stroke="url(#paint23_linear_747_2)" stroke-miterlimit="10"/>
<path d="M2.16968 119.593C33.1413 120.724 63.9584 134.769 94.9866 128.018C128.044 120.829 155.591 101.104 187.943 92.1719C219.326 83.5046 252.713 93.2895 282.026 103.745C310.295 113.831 337.167 127.06 365.858 136.206C394.93 145.476 413.471 125.842 437.183 114.31C468.669 99.0054 500.918 118.416 529.737 131.001C558.938 143.738 592.422 160.425 626.169 157.428C668.448 153.678 700.768 122.257 743.634 119.588" stroke="url(#paint24_linear_747_2)" stroke-miterlimit="10"/>
<path d="M2.18018 115.441C33.4401 116.705 64.2624 131.722 95.6871 124.921C127.864 117.95 154.314 98.239 185.796 89.5033C216.891 80.8634 251.158 90.2469 280.61 99.822C309.45 109.201 336.9 121.586 365.585 131.33C394.271 141.074 411.026 122.403 434.433 111.035C465.204 96.095 498.797 116.965 527.116 128.666C556.929 140.982 591.263 156.657 625.196 153.618C667.804 149.8 700.444 118.169 743.624 115.441" stroke="url(#paint25_linear_747_2)" stroke-miterlimit="10"/>
<path d="M2.19043 111.395C33.7439 112.764 64.5404 128.62 96.3307 121.778C127.74 115.022 153.217 95.3198 183.865 86.7529C214.723 78.154 249.773 87.1543 279.359 95.9357C308.709 104.653 336.709 116.295 365.348 126.636C378.86 131.513 388.761 131.713 401.824 125.423C412.442 120.309 421.422 112.883 432.024 107.732C446.168 100.853 457.434 101.045 472.248 106.159C490.048 112.312 507.39 119.388 524.856 126.262C555.169 138.159 590.249 152.921 624.336 149.855C667.238 145.996 700.151 114.155 743.64 111.395" stroke="url(#paint26_linear_747_2)" stroke-miterlimit="10"/>
<path d="M2.20093 107.444C34.0479 108.813 64.7517 125.427 96.9127 118.561C127.699 111.988 152.306 92.2127 182.336 83.8647C213.034 75.3297 248.728 83.956 278.432 92.0759C308.137 100.196 336.658 111.235 365.204 122.183C378.396 127.242 388.041 127.958 400.99 121.7C411.258 116.737 419.826 109.41 430.067 104.411C444.134 97.5408 455.225 98.2707 469.782 103.553C487.67 110.045 505.279 117.106 523.075 123.789C553.768 135.312 589.534 149.253 623.672 146.178C666.811 142.296 699.945 110.263 743.645 107.485" stroke="url(#paint27_linear_747_2)" stroke-miterlimit="10"/>
<path d="M2.21094 103.604C34.3565 104.936 64.8853 122.124 97.4067 115.241C127.735 108.813 151.575 88.8876 181.187 80.786C211.845 72.3878 247.924 80.6218 277.814 88.1623C307.947 95.7576 336.714 106.336 365.142 117.887C378.066 123.133 387.603 124.236 400.455 117.978C410.444 113.12 418.667 105.839 428.625 100.935C442.625 94.0424 453.706 95.16 468.041 100.643C485.955 107.486 503.77 114.566 521.839 121.107C552.733 132.297 589.095 145.517 623.208 142.465C666.517 138.588 699.811 106.373 743.696 103.604" stroke="url(#paint28_linear_747_2)" stroke-miterlimit="10"/>
<path d="M2.22144 99.8588C34.6605 101.068 64.9267 118.671 97.8086 111.77C127.822 105.47 151.148 85.4574 180.405 77.4516C210.964 69.0945 247.517 77.1505 277.485 84.2212C307.926 91.4059 336.823 101.697 365.117 113.872C377.83 119.347 387.417 120.669 400.203 114.37C409.986 109.548 417.951 102.263 427.719 97.3955C441.668 90.4434 452.903 91.7572 467.068 97.4913C484.946 104.726 502.895 111.856 521.164 118.288C552.151 129.195 588.936 141.822 622.91 138.816C666.321 134.98 699.698 102.591 743.686 99.8588" stroke="url(#paint29_linear_747_2)" stroke-miterlimit="10"/>
<path d="M2.23706 96.2092C34.8409 97.2949 64.896 115.09 97.9787 108.124C127.89 101.829 151.076 81.8352 180.24 73.875C210.769 65.5452 247.487 73.7655 277.465 80.6856C308.014 87.7381 336.818 97.9518 365.148 110.182C377.815 115.656 387.536 116.796 400.234 110.538C409.95 105.748 417.864 98.5266 427.58 93.7231C441.483 86.8531 452.924 88.1304 466.955 94.0287C484.755 101.51 502.726 108.695 521.072 115.063C551.909 125.769 589.173 138.255 622.884 135.134C666.234 131.129 699.826 99.2884 743.702 96.2229" stroke="url(#paint30_linear_747_2)" stroke-miterlimit="10"/>
<path d="M2.24731 92.6192C34.9232 93.6501 64.8908 111.564 98.0507 104.516C127.915 98.1663 151.22 78.341 180.405 70.4309C210.934 62.1559 247.569 70.7365 277.501 77.7023C307.952 84.7913 336.632 94.9867 365.158 106.637C392.16 117.663 405.542 100.707 427.781 90.133C441.683 83.5231 453.197 84.7274 467.099 90.6485C484.822 98.1982 502.762 105.365 521.103 111.66C551.76 122.179 589.508 134.724 622.977 131.339C666.141 126.969 700.146 96.4237 743.727 92.6876" stroke="url(#paint31_linear_747_2)" stroke-miterlimit="10"/>
<path d="M2.25757 89.0841C35.0313 90.0786 64.9268 108.125 98.1897 101.018C128.054 94.6312 151.452 75.0157 180.652 67.1787C211.181 58.9676 247.708 67.8766 277.593 74.8652C307.926 81.9587 336.498 92.1086 365.189 103.171C391.964 113.499 405.825 96.8436 428.08 86.7485C441.982 80.426 453.598 81.5938 467.377 87.524C485.018 95.1147 502.906 102.226 521.242 108.412C551.775 118.717 589.899 131.13 623.09 127.517C666.038 122.846 700.46 93.6276 743.722 89.2985" stroke="url(#paint32_linear_747_2)" stroke-miterlimit="10"/>
<path d="M2.26782 85.6124C35.1549 86.5795 65.004 104.772 98.3905 97.6326C128.219 91.2553 151.755 71.8633 180.976 64.1084C211.505 56.0341 247.914 65.1667 277.742 72.1599C307.931 79.2305 336.442 89.3029 365.235 99.7538C391.82 109.393 406.155 93.1073 428.466 83.4821C442.404 77.4743 454.108 78.6421 467.784 84.5678C485.327 92.1722 503.179 99.2018 521.484 105.242C551.94 115.3 590.296 127.407 623.26 123.607C665.997 118.685 700.815 90.8402 743.748 85.9773" stroke="url(#paint33_linear_747_2)" stroke-miterlimit="10"/>
<path d="M2.27783 82.2006C35.3039 83.1585 65.0964 101.492 98.6528 94.3485C128.456 88.0077 152.136 68.8347 181.383 61.2348C211.901 53.302 248.125 62.6399 277.943 69.6102C307.967 76.6353 336.39 86.6026 365.302 96.4241C391.686 105.388 406.525 89.5313 428.939 80.4261C442.924 74.7421 454.721 75.951 468.309 81.8584C485.715 89.5015 503.575 96.3024 521.813 102.231C552.244 112.012 590.707 123.671 623.481 119.698C665.94 114.575 701.185 88.1354 743.742 82.8118" stroke="url(#paint34_linear_747_2)" stroke-miterlimit="10"/>
<path d="M2.2937 78.8521C35.4691 79.81 65.2512 98.3033 98.9724 91.1687C128.749 84.8781 152.59 65.9606 181.872 58.5158C212.38 50.7609 248.45 60.2447 278.211 67.1831C308.076 74.1352 336.421 83.9658 365.4 93.1485C391.588 101.451 406.963 86.0642 429.511 77.5109C443.563 72.1782 455.447 73.4555 468.958 79.3356C486.259 86.928 504.055 93.6014 522.251 99.3206C552.697 108.795 591.156 119.821 623.754 115.743C665.941 110.465 701.587 85.4711 743.774 79.7325" stroke="url(#paint35_linear_747_2)" stroke-miterlimit="10"/>
<path d="M2.30396 75.5764C35.6493 76.5389 65.4263 95.1918 99.338 88.112C129.094 81.8989 153.104 63.2551 182.397 55.9883C212.89 48.4249 248.769 58.0228 278.505 64.9019C308.148 71.7445 336.483 81.4199 365.493 89.9504C391.496 97.6004 407.437 82.7383 430.139 74.7644C444.268 69.8012 456.245 71.1743 469.7 77.0452C486.882 84.5651 504.598 91.0884 522.735 96.574C553.233 105.697 591.573 115.989 624.032 111.815C665.925 106.432 701.958 82.9116 743.763 76.8217" stroke="url(#paint36_linear_747_2)" stroke-miterlimit="10"/>
<path d="M2.31421 72.3648C35.8449 73.3501 65.6476 92.181 99.755 85.1377C129.491 79.0341 153.676 60.6868 183 53.6161C213.472 46.2717 249.155 55.938 278.824 62.7395C308.261 69.4909 336.565 78.9474 365.585 86.8209C391.408 93.8232 407.947 79.5222 430.819 72.1595C445.035 67.5978 457.105 69.0758 470.518 74.8966C487.587 82.3272 505.229 88.6764 523.311 93.8962C553.907 102.668 592.031 112.088 624.372 107.841C665.961 102.367 702.365 80.3752 743.779 73.9705" stroke="url(#paint37_linear_747_2)" stroke-miterlimit="10"/>
<path d="M2.32422 69.2268C36.0557 70.2395 65.8533 89.2528 100.213 82.3053C129.928 76.293 154.304 58.2559 183.659 51.4041C214.105 44.3015 249.567 53.9998 279.194 60.7146C308.426 67.3428 336.704 76.5621 365.698 83.7696C391.346 90.1561 408.518 76.4389 431.57 69.7104C445.885 65.5364 458.047 67.1741 471.429 72.9036C488.379 80.2216 505.937 86.3767 523.95 91.3148C554.664 99.6855 592.479 108.134 624.727 103.837C666.007 98.3626 702.756 77.8804 743.778 71.2112" stroke="url(#paint38_linear_747_2)" stroke-miterlimit="10"/>
<path d="M2.33496 66.1659C36.2776 67.2151 66.1061 86.4109 100.682 79.5592C130.413 73.6882 154.979 55.9613 184.37 49.3468C214.785 42.5042 250 52.1979 279.627 58.8124C308.642 65.2992 336.9 74.2539 365.864 80.7908C391.336 86.5432 409.178 73.4647 432.42 67.4021C446.838 63.6433 459.087 65.4406 472.46 71.1428C489.286 78.3323 506.756 84.2723 524.692 88.9016C555.524 96.8436 592.958 104.252 625.134 99.9045C666.09 94.3985 703.168 75.5129 743.799 68.6156" stroke="url(#paint39_linear_747_2)" stroke-miterlimit="10"/>
<path d="M2.34473 63.1962C36.4984 64.2774 66.363 83.6556 101.243 76.9179C130.927 71.1793 155.699 53.7991 185.121 47.4355C215.5 40.862 250.473 50.5329 280.033 57.0151C308.837 63.3468 337.075 72.005 365.976 77.8759C391.289 83.0215 409.836 70.5771 433.259 65.2125C447.78 61.8779 460.127 63.844 473.504 69.5051C490.203 76.5509 507.58 82.2591 525.427 86.5614C556.461 94.0427 593.431 100.292 625.556 95.9541C666.192 90.48 703.564 73.1819 743.809 66.0884" stroke="url(#paint40_linear_747_2)" stroke-miterlimit="10"/>
<path d="M2.35522 60.2765C36.7561 61.4215 66.6773 80.9868 101.804 74.3768C131.483 68.7978 156.472 51.7643 185.914 45.6653C216.268 39.3838 250.978 48.9999 280.497 55.3727C309.085 61.5447 337.302 69.8744 366.126 75.0794C391.289 79.6411 410.567 67.8673 434.166 63.2188C448.794 60.3221 461.234 62.4981 474.632 68.0817C491.204 74.9694 508.485 80.4306 526.236 84.3899C557.46 91.3784 593.915 96.4283 625.999 92.0855C666.316 86.6342 703.956 70.9875 743.82 63.7298" stroke="url(#paint41_linear_747_2)" stroke-miterlimit="10"/>
<path d="M2.36548 57.4529C37.0135 58.6572 66.9862 78.4095 102.407 71.9455C132.06 66.5307 157.249 49.8576 186.743 44.0368C217.056 38.0518 251.498 47.5995 280.971 53.8309C309.352 59.8296 337.533 67.808 366.265 72.3469C391.3 76.302 411.324 65.2398 435.103 61.2847C449.834 58.8351 462.362 61.2254 475.806 66.7588C492.249 73.4753 509.429 78.6727 527.075 82.2687C558.484 88.7281 594.384 92.5235 626.452 88.199C666.455 82.8116 704.332 68.8162 743.83 61.4125" stroke="url(#paint42_linear_747_2)" stroke-miterlimit="10"/>
<path d="M2.37598 54.7158C37.266 55.984 67.3159 75.9233 103.009 69.6145C132.668 64.373 158.068 48.0694 187.598 42.536C217.869 36.8658 252.038 46.3177 281.491 52.403C309.672 58.2284 337.811 65.8237 366.451 69.7011C391.377 73.0723 412.164 62.7308 436.112 59.5057C450.952 57.5031 463.567 60.1215 477.063 65.5728C493.378 72.1155 510.457 77.0446 527.992 80.2707C559.612 86.169 594.899 88.6688 626.957 84.3762C666.605 79.0573 704.708 66.7497 743.841 59.2228" stroke="url(#paint43_linear_747_2)" stroke-miterlimit="10"/>
<path d="M2.38599 52.0652C37.5283 53.4018 67.6555 73.5054 103.642 67.3881C133.301 62.3292 158.912 46.395 188.478 41.1627C218.708 35.8255 252.599 45.1588 282.016 51.089C310.006 56.7319 338.094 63.9212 366.61 67.1418C391.449 69.9472 412.993 60.3402 437.095 57.845C452.028 56.2985 464.741 59.1542 478.288 64.537C494.476 70.8936 511.453 75.5405 528.867 78.3819C560.688 83.6872 595.352 84.8687 627.41 80.608C666.769 75.3803 705.021 64.7742 743.814 57.1379" stroke="url(#paint44_linear_747_2)" stroke-miterlimit="10"/>
<path d="M2.39648 49.5108C37.7963 50.9158 68.0109 71.2247 104.286 65.2671C133.939 60.3906 159.777 44.8396 189.379 39.9312C219.558 34.9133 253.166 44.1417 282.577 49.9077C310.382 55.3818 338.409 62.1286 366.806 64.6968C391.598 66.9412 413.878 58.0823 438.167 56.3215C453.207 55.2312 465.971 58.3378 479.647 63.6476C495.711 69.8149 512.584 74.1734 529.871 76.6212C602.473 87.2455 673.618 69.3224 743.887 55.1811" stroke="url(#paint45_linear_747_2)" stroke-miterlimit="10"/>
<path d="M2.40674 47.0381C38.0691 48.5207 68.3713 69.0074 104.945 63.2368C134.599 58.5565 160.658 43.3933 190.296 38.7722C220.423 34.0736 253.748 43.188 283.097 48.7852C310.743 54.0723 338.687 60.3812 366.955 62.2834C391.743 63.9667 414.723 55.897 439.191 54.8478C454.319 54.2091 467.192 57.5848 480.945 62.8171C496.825 68.8979 513.688 72.7754 530.808 74.9194C601.562 83.7829 675.358 67.3287 743.871 53.2831" stroke="url(#paint46_linear_747_2)" stroke-miterlimit="10"/>
<path d="M2.41724 44.666C38.3422 46.2261 68.7371 66.8907 105.61 61.3117C135.268 56.8093 161.544 42.0521 191.218 37.7413C221.293 33.3757 254.33 42.3669 283.649 47.7771C311.145 52.8634 338.991 58.7252 367.13 60.0071C391.964 61.1384 415.593 53.8305 440.247 53.5249C455.462 53.3378 468.417 56.9781 482.279 62.1465C498.055 68.0266 514.805 71.5711 531.782 73.3319C564.123 76.6848 596.917 73.8291 628.991 69.7281C667.475 64.806 706.016 59.4049 743.882 51.4812" stroke="url(#paint47_linear_747_2)" stroke-miterlimit="10"/>
<path d="M2.42749 42.3898C38.3061 44.0001 68.6598 64.7013 105.496 59.6013C135.036 55.4957 161.364 41.3133 190.806 37.0115C220.567 32.6642 252.94 41.2904 282.001 46.5C310.094 51.5179 338.553 57.1242 367.31 57.8267C392.839 58.4517 417.715 51.5452 443.187 52.3527C458.562 52.8408 471.378 57.293 485.471 62.2379C500.11 67.3744 515.567 70.3168 531.2 71.7081C564.473 74.6687 597.473 70.3031 630.35 66.1838C668.299 61.4305 706.587 57.772 743.907 49.8255" stroke="url(#paint48_linear_747_2)" stroke-miterlimit="10"/>
<path d="M2.43237 40.214C38.5582 41.9018 69.0355 62.7763 106.145 57.8725C135.69 53.9676 162.228 40.1593 191.717 36.1723C221.417 32.1762 253.531 40.6793 282.551 45.72C310.511 50.5828 338.862 55.7558 367.47 55.7558C393.148 55.7558 418.574 49.7663 444.258 51.2945C459.653 52.2068 472.578 56.9145 486.779 61.7545C501.32 66.7085 516.674 69.3407 532.173 70.3807C565.554 72.6206 597.983 66.8591 630.855 62.8539C668.556 58.2602 706.839 56.3032 743.897 48.2563" stroke="url(#paint49_linear_747_2)" stroke-miterlimit="10"/>
<path d="M2.44287 38.1428C38.8416 39.9082 69.3806 60.9515 106.804 56.2392C136.36 52.5169 163.104 39.0962 192.634 35.4195C222.272 31.7199 254.134 40.1637 283.139 45.0402C310.944 49.7251 339.186 54.4328 367.645 53.7668C393.509 53.1601 419.434 48.0692 445.334 50.309C460.75 51.6456 473.777 56.6042 488.071 61.3393C502.489 66.1154 517.771 68.4373 533.125 69.1261C566.594 70.6361 598.488 63.5061 631.349 59.6104C668.813 55.1672 707.04 54.9209 743.882 46.7736" stroke="url(#paint50_linear_747_2)" stroke-miterlimit="10"/>
<path d="M2.45312 36.1765C39.1041 38.0012 69.7719 59.2224 107.458 54.7063C137.019 51.1618 163.969 38.1062 193.545 34.7578C223.121 31.4095 254.726 39.7393 283.654 44.447C311.392 48.9631 339.5 53.2283 367.805 51.8917C393.895 50.6601 420.263 46.4815 446.379 49.4238C461.826 51.1618 474.946 56.3896 489.374 61.0152C503.802 65.6408 518.888 67.6297 534.099 67.9764C567.568 68.7473 599.039 60.2808 631.864 56.4945C669.112 52.1974 707.308 53.6571 743.902 45.3913" stroke="url(#paint51_linear_747_2)" stroke-miterlimit="10"/>
<path d="M2.45825 34.3155C39.3616 36.2314 70.1375 57.5803 108.091 53.274C137.667 49.9029 164.813 37.2441 194.431 34.1786C223.924 31.1268 255.334 39.4018 284.21 43.9498C311.865 48.3017 339.819 52.1199 367.985 50.1264C394.333 48.2607 421.092 44.9899 447.44 48.6211C462.841 50.7468 476.115 56.2483 490.646 60.769C504.909 65.203 519.995 66.909 535.041 66.9227C568.51 66.9592 599.579 57.1971 632.358 53.5112C669.431 49.3418 707.534 52.5031 743.902 44.1049" stroke="url(#paint52_linear_747_2)" stroke-miterlimit="10"/>
<path d="M2.46362 32.5688C39.6141 34.5486 70.4827 56.0755 108.709 51.9334C138.301 48.7402 165.642 36.4235 195.296 33.6865C224.759 30.9494 255.854 39.1606 284.735 43.5489C312.334 47.7275 340.149 51.1169 368.15 48.4756C394.781 45.9667 421.885 43.6037 448.475 47.91C463.871 50.3961 477.258 56.1758 491.897 60.5916C506.093 64.8705 521.051 66.2709 535.958 65.9607C569.375 65.2719 600.12 54.2599 632.853 50.6607C669.715 46.6099 707.72 51.4727 743.918 42.9057" stroke="url(#paint53_linear_747_2)" stroke-miterlimit="10"/>
<path d="M2.47388 30.9312C39.856 32.9794 70.8328 54.6522 109.312 50.6926C138.919 47.6408 166.466 35.721 196.135 33.244C225.536 30.7897 256.379 38.9872 285.245 43.2113C312.792 47.2302 340.468 50.1954 368.309 46.92C395.239 43.7542 422.678 42.2853 449.453 47.253C464.834 50.1041 478.334 56.1575 493.102 60.4821C507.21 64.5876 522.091 65.7189 536.869 65.094C570.199 63.6935 600.681 51.4863 633.357 47.9647C670.044 44.0096 707.936 50.5603 743.959 41.8246" stroke="url(#paint54_linear_747_2)" stroke-miterlimit="10"/>
<path d="M2.47876 29.4072C40.0669 31.5193 71.1569 53.3472 109.883 49.5473C139.506 46.6369 167.207 35.0775 196.943 32.8741C226.293 30.7028 256.909 38.8865 285.729 42.9647C313.24 46.865 340.777 49.3831 368.453 45.4873C395.697 41.6555 423.383 41.0625 450.39 46.6734C465.74 49.8666 479.369 56.1937 494.235 60.4179C508.271 64.4048 523.069 65.2305 537.693 64.309C570.904 62.2152 601.175 48.8813 633.789 45.4052C670.348 41.5232 708.085 49.7526 743.948 40.807" stroke="url(#paint55_linear_747_2)" stroke-miterlimit="10"/>
<path d="M2.48364 28.0068C40.3086 30.1691 71.481 52.143 110.423 48.4936C140.072 45.72 167.944 34.5027 197.71 32.5686C227.014 30.6663 257.393 38.8501 286.187 42.8005C313.672 46.5731 341.075 48.6715 368.597 44.1691C396.119 39.6666 424.078 39.9312 451.296 46.1625C466.61 49.6705 480.373 56.1983 495.321 60.4043C509.223 64.3228 524.042 64.8155 538.485 63.5975C571.563 60.8604 601.664 46.4499 634.211 43.0195C670.61 39.1831 708.239 49.0775 743.948 39.8902" stroke="url(#paint56_linear_747_2)" stroke-miterlimit="10"/>
<path d="M2.51489 26.7026C40.5458 28.9105 71.7852 51.0304 110.959 47.5224C140.597 44.8811 168.634 34.0014 198.437 32.3181C227.673 30.6668 257.857 38.8779 286.619 42.7143C314.09 46.3637 341.364 48.0652 368.726 42.9698C396.603 37.7831 424.727 38.8642 452.141 45.7068C467.423 49.5113 481.305 56.2855 496.341 60.4321C510.186 64.2503 524.928 64.4692 539.222 63.0049C554.818 61.4038 570.024 57.7361 584.997 53.667C601.155 49.2832 617.781 42.5957 634.613 40.8258C670.889 37.0076 708.389 48.5442 743.954 39.0832" stroke="url(#paint57_linear_747_2)" stroke-miterlimit="10"/>
<path d="M2.51489 25.562C40.7312 27.8064 72.0272 50.0676 111.428 46.6783C141.092 44.1237 169.277 33.545 199.116 32.1127C228.306 30.694 258.274 38.9553 287.011 42.6959C314.481 46.2632 341.647 47.5633 368.85 41.893C397.031 36.0175 425.34 37.8833 452.955 45.3189C468.17 49.4244 482.17 56.4039 497.283 60.4912C511.072 64.2181 525.747 64.1908 539.902 62.4756C555.467 60.5961 570.585 56.6092 585.471 52.2801C601.51 47.618 618.162 40.5838 634.989 38.8002C671.151 34.9729 708.533 48.1289 743.959 38.344" stroke="url(#paint58_linear_747_2)" stroke-miterlimit="10"/>
<path d="M2.51489 24.5259C40.9063 26.8067 72.2846 49.2003 111.855 45.9113C141.539 43.4388 169.859 33.1795 199.724 31.9524C228.873 30.7526 258.639 39.1097 287.356 42.7546C314.831 46.2352 341.9 47.1703 368.943 40.9299C397.448 34.3747 425.886 36.9749 453.696 44.9807C468.855 49.3417 482.958 56.5356 498.148 60.5773C511.88 64.2266 526.468 63.9712 540.519 62.0325C556.049 59.8884 571.089 55.6004 585.898 51.0341C601.829 46.1211 618.502 38.7767 635.329 36.9657C671.373 33.0883 708.667 47.8455 743.974 37.7093" stroke="url(#paint59_linear_747_2)" stroke-miterlimit="10"/>
<path d="M2.51489 23.6187C41.0659 25.8995 72.4958 48.4482 112.236 45.2367C141.957 42.8327 170.421 32.8562 200.316 31.8298C229.434 30.8262 259.015 39.3065 287.701 42.8783C315.186 46.295 342.178 46.8835 369.056 40.1093C397.855 32.8516 426.365 36.1361 454.371 44.6711C469.478 49.283 483.674 56.6639 498.925 60.6691C512.612 64.2591 527.147 63.803 541.065 61.6589C556.574 59.2686 571.532 54.7069 586.274 49.9216C602.118 44.7714 618.801 37.1761 635.648 35.3241C671.62 31.3645 708.822 47.6864 743.974 37.1488" stroke="url(#paint60_linear_747_2)" stroke-miterlimit="10"/>
<path d="M2.51489 22.8433C41.2152 25.1241 72.676 47.8142 112.571 44.6529C142.296 42.2991 170.889 32.5871 200.81 31.7204C229.897 30.8947 259.283 39.5255 287.968 43.0472C315.47 46.4229 342.409 46.6966 369.133 39.3978C398.23 31.4467 426.756 35.3515 454.968 44.4157C470.008 49.2511 484.287 56.8008 499.595 60.7786C513.24 64.3277 527.704 63.6982 541.524 61.3717C557.012 58.7578 571.903 53.9497 586.583 48.9637C602.355 43.6037 619.022 35.8123 635.916 33.91C671.81 29.8273 708.966 47.6865 743.979 36.6836" stroke="url(#paint61_linear_747_2)" stroke-miterlimit="10"/>
<path d="M2.51489 22.1948C41.0247 24.4757 72.3825 47.1658 112.046 44.2234C143.388 41.9015 173.685 31.4141 205.311 31.6285C232.348 31.811 259.479 39.68 286.187 43.0648C314.563 46.6594 341.725 46.559 369.205 38.8634C399.677 30.3512 428.229 34.8263 457.599 44.9488C470.765 49.4831 483.308 55.6688 496.572 59.9158C510.609 64.4091 526.02 63.9712 540.463 61.4759C556.852 58.6476 572.541 53.2648 587.999 47.7907C603.58 42.2528 620.145 34.4568 636.946 32.6321C672.474 28.7957 709.424 47.736 743.974 36.3134" stroke="url(#paint62_linear_747_2)" stroke-miterlimit="10"/>
<path d="M2.51489 21.6841C41.1328 23.933 72.4906 46.7736 112.262 43.8267C143.615 41.5003 174.051 31.2592 205.666 31.6013C232.683 31.8978 259.674 39.9858 286.367 43.3751C314.764 46.9789 341.92 46.6231 369.267 38.4256C400.048 29.1927 428.45 34.1924 458.062 44.8121C471.167 49.5107 483.746 55.7511 497.046 60.0027C511.051 64.5005 526.396 63.9714 540.756 61.3347C557.135 58.3285 572.763 52.713 588.174 47.0929C603.735 41.4181 620.294 33.5355 637.136 31.6195C672.598 27.6143 709.589 47.9734 743.979 35.9988" stroke="url(#paint63_linear_747_2)" stroke-miterlimit="10"/>
<path d="M2.51489 21.3193C41.2101 23.5318 72.5421 46.5092 112.427 43.5167C143.784 41.1629 174.288 31.1407 205.944 31.5924C232.951 31.9755 259.813 40.3235 286.496 43.7403C314.908 47.3896 342.106 46.8103 369.277 38.1202C400.357 28.1847 428.533 33.6041 458.397 44.6709C471.471 49.5109 484.081 55.8152 497.391 60.1169C511.386 64.6376 526.596 64.0673 540.947 61.3075C574.102 54.9211 603.807 34.927 637.281 30.8944C672.68 26.6292 709.769 48.3613 743.979 35.7846" stroke="url(#paint64_linear_747_2)" stroke-miterlimit="10"/>
<path d="M2.51489 21.0869C41.2719 23.2537 72.5936 46.368 112.525 43.3026C143.887 40.8894 174.493 31.0634 206.134 31.588C233.146 32.0442 259.891 40.6841 286.563 44.1602C314.986 47.8643 342.276 47.1162 369.293 37.9562C400.645 27.3228 428.507 33.0569 458.655 44.5707C471.62 49.5111 484.261 56.0572 497.602 60.1901C511.772 64.5739 526.524 64.2181 541.029 61.3351C574.241 54.7297 603.781 34.7174 637.373 30.3929C672.727 25.8311 709.975 48.8907 743.959 35.648" stroke="url(#paint65_linear_747_2)" stroke-miterlimit="10"/>
<path d="M2.51477 21C41.3129 23.103 72.578 46.3541 112.55 43.1746C143.913 40.6793 174.56 31.0176 206.263 31.5832C233.28 32.0668 259.921 41.0716 286.588 44.6298C315.011 48.4206 342.445 47.5493 369.303 37.9286C400.897 26.6018 428.368 32.5412 458.804 44.4929C486.609 55.4046 509.517 67.8262 541.003 61.4306C574.302 54.6656 603.703 34.8221 637.414 30.1508C672.727 25.2561 710.171 49.561 744 35.6249" stroke="url(#paint66_linear_747_2)" stroke-miterlimit="10"/>
<path d="M598 150.463C577.993 152.299 566.498 153.987 559.441 159.567C551.147 166.101 549.183 178.067 547 202C544.745 177.186 542.708 165.293 533.613 158.906C526.556 153.914 515.134 152.299 496 150.537C515.934 148.701 527.502 147.013 534.486 141.507C542.853 134.9 544.817 123.006 547 99C549.037 121.098 550.856 132.917 557.622 139.745C564.388 146.572 576.174 148.481 598 150.463Z" fill="#67CC96"/>
<defs>
<linearGradient id="paint0_linear_747_2" x1="534553" y1="782.157" x2="534553" y2="389.857" gradientUnits="userSpaceOnUse">
<stop stop-color="#218B53"/>
<stop offset="1" stop-color="#43A672" stop-opacity="0.7"/>
</linearGradient>
<linearGradient id="paint1_linear_747_2" x1="534553" y1="1137.06" x2="534553" y2="479.529" gradientUnits="userSpaceOnUse">
<stop stop-color="#218B53"/>
<stop offset="1" stop-color="#43A672" stop-opacity="0.7"/>
</linearGradient>
<linearGradient id="paint2_linear_747_2" x1="534553" y1="1726.44" x2="534553" y2="631.527" gradientUnits="userSpaceOnUse">
<stop stop-color="#218B53"/>
<stop offset="1" stop-color="#43A672" stop-opacity="0.7"/>
</linearGradient>
<linearGradient id="paint3_linear_747_2" x1="534553" y1="2374.65" x2="534553" y2="799.548" gradientUnits="userSpaceOnUse">
<stop stop-color="#218B53"/>
<stop offset="1" stop-color="#43A672" stop-opacity="0.7"/>
</linearGradient>
<linearGradient id="paint4_linear_747_2" x1="534553" y1="3163.58" x2="534553" y2="1004.97" gradientUnits="userSpaceOnUse">
<stop stop-color="#218B53"/>
<stop offset="1" stop-color="#43A672" stop-opacity="0.7"/>
</linearGradient>
<linearGradient id="paint5_linear_747_2" x1="534546" y1="3993.11" x2="534546" y2="1221.33" gradientUnits="userSpaceOnUse">
<stop stop-color="#218B53"/>
<stop offset="1" stop-color="#43A672" stop-opacity="0.7"/>
</linearGradient>
<linearGradient id="paint6_linear_747_2" x1="534557" y1="4825.12" x2="534557" y2="1438.47" gradientUnits="userSpaceOnUse">
<stop stop-color="#218B53"/>
<stop offset="1" stop-color="#43A672" stop-opacity="0.7"/>
</linearGradient>
<linearGradient id="paint7_linear_747_2" x1="534542" y1="5616" x2="534542" y2="1644.75" gradientUnits="userSpaceOnUse">
<stop stop-color="#218B53"/>
<stop offset="1" stop-color="#43A672" stop-opacity="0.7"/>
</linearGradient>
<linearGradient id="paint8_linear_747_2" x1="534553" y1="6400.55" x2="534553" y2="1849.17" gradientUnits="userSpaceOnUse">
<stop stop-color="#218B53"/>
<stop offset="1" stop-color="#43A672" stop-opacity="0.7"/>
</linearGradient>
<linearGradient id="paint9_linear_747_2" x1="534553" y1="7003.04" x2="534553" y2="2005.43" gradientUnits="userSpaceOnUse">
<stop stop-color="#218B53"/>
<stop offset="1" stop-color="#43A672" stop-opacity="0.7"/>
</linearGradient>
<linearGradient id="paint10_linear_747_2" x1="534553" y1="7449.3" x2="534553" y2="2120.17" gradientUnits="userSpaceOnUse">
<stop stop-color="#218B53"/>
<stop offset="1" stop-color="#43A672" stop-opacity="0.7"/>
</linearGradient>
<linearGradient id="paint11_linear_747_2" x1="534568" y1="7687.33" x2="534568" y2="2179.51" gradientUnits="userSpaceOnUse">
<stop stop-color="#218B53"/>
<stop offset="1" stop-color="#43A672" stop-opacity="0.7"/>
</linearGradient>
<linearGradient id="paint12_linear_747_2" x1="534553" y1="7792.73" x2="534553" y2="2203.33" gradientUnits="userSpaceOnUse">
<stop stop-color="#218B53"/>
<stop offset="1" stop-color="#43A672" stop-opacity="0.7"/>
</linearGradient>
<linearGradient id="paint13_linear_747_2" x1="534542" y1="7899.58" x2="534542" y2="2227.52" gradientUnits="userSpaceOnUse">
<stop stop-color="#218B53"/>
<stop offset="1" stop-color="#43A672" stop-opacity="0.7"/>
</linearGradient>
<linearGradient id="paint14_linear_747_2" x1="534546" y1="7959.85" x2="534546" y2="2239.62" gradientUnits="userSpaceOnUse">
<stop stop-color="#218B53"/>
<stop offset="1" stop-color="#43A672" stop-opacity="0.7"/>
</linearGradient>
<linearGradient id="paint15_linear_747_2" x1="534565" y1="7976.85" x2="534565" y2="2240.45" gradientUnits="userSpaceOnUse">
<stop stop-color="#218B53"/>
<stop offset="1" stop-color="#43A672" stop-opacity="0.7"/>
</linearGradient>
<linearGradient id="paint16_linear_747_2" x1="534554" y1="7955.98" x2="534554" y2="2231.44" gradientUnits="userSpaceOnUse">
<stop stop-color="#218B53"/>
<stop offset="1" stop-color="#43A672" stop-opacity="0.7"/>
</linearGradient>
<linearGradient id="paint17_linear_747_2" x1="534554" y1="7900.79" x2="534554" y2="2213.52" gradientUnits="userSpaceOnUse">
<stop stop-color="#218B53"/>
<stop offset="1" stop-color="#43A672" stop-opacity="0.7"/>
</linearGradient>
<linearGradient id="paint18_linear_747_2" x1="534557" y1="7774.69" x2="534557" y2="2177.11" gradientUnits="userSpaceOnUse">
<stop stop-color="#218B53"/>
<stop offset="1" stop-color="#43A672" stop-opacity="0.7"/>
</linearGradient>
<linearGradient id="paint19_linear_747_2" x1="534561" y1="7690.19" x2="534561" y2="2151.7" gradientUnits="userSpaceOnUse">
<stop stop-color="#218B53"/>
<stop offset="1" stop-color="#43A672" stop-opacity="0.7"/>
</linearGradient>
<linearGradient id="paint20_linear_747_2" x1="534539" y1="7588.17" x2="534539" y2="2121.77" gradientUnits="userSpaceOnUse">
<stop stop-color="#218B53"/>
<stop offset="1" stop-color="#43A672" stop-opacity="0.7"/>
</linearGradient>
<linearGradient id="paint21_linear_747_2" x1="534554" y1="7479.89" x2="534554" y2="2090.29" gradientUnits="userSpaceOnUse">
<stop stop-color="#218B53"/>
<stop offset="1" stop-color="#43A672" stop-opacity="0.7"/>
</linearGradient>
<linearGradient id="paint22_linear_747_2" x1="534568" y1="7365.4" x2="534568" y2="2057.26" gradientUnits="userSpaceOnUse">
<stop stop-color="#218B53"/>
<stop offset="1" stop-color="#43A672" stop-opacity="0.7"/>
</linearGradient>
<linearGradient id="paint23_linear_747_2" x1="534546" y1="7249.4" x2="534546" y2="2023.88" gradientUnits="userSpaceOnUse">
<stop stop-color="#218B53"/>
<stop offset="1" stop-color="#43A672" stop-opacity="0.7"/>
</linearGradient>
<linearGradient id="paint24_linear_747_2" x1="534554" y1="7098.38" x2="534554" y2="1981.35" gradientUnits="userSpaceOnUse">
<stop stop-color="#218B53"/>
<stop offset="1" stop-color="#43A672" stop-opacity="0.7"/>
</linearGradient>
<linearGradient id="paint25_linear_747_2" x1="534539" y1="6990.29" x2="534539" y2="1950.17" gradientUnits="userSpaceOnUse">
<stop stop-color="#218B53"/>
<stop offset="1" stop-color="#43A672" stop-opacity="0.7"/>
</linearGradient>
<linearGradient id="paint26_linear_747_2" x1="534542" y1="6893.96" x2="534542" y2="1922.1" gradientUnits="userSpaceOnUse">
<stop stop-color="#218B53"/>
<stop offset="1" stop-color="#43A672" stop-opacity="0.7"/>
</linearGradient>
<linearGradient id="paint27_linear_747_2" x1="534539" y1="6818.25" x2="534539" y2="1899.51" gradientUnits="userSpaceOnUse">
<stop stop-color="#218B53"/>
<stop offset="1" stop-color="#43A672" stop-opacity="0.7"/>
</linearGradient>
<linearGradient id="paint28_linear_747_2" x1="534568" y1="6752.94" x2="534568" y2="1879.63" gradientUnits="userSpaceOnUse">
<stop stop-color="#218B53"/>
<stop offset="1" stop-color="#43A672" stop-opacity="0.7"/>
</linearGradient>
<linearGradient id="paint29_linear_747_2" x1="534554" y1="6720.55" x2="534554" y2="1868.43" gradientUnits="userSpaceOnUse">
<stop stop-color="#218B53"/>
<stop offset="1" stop-color="#43A672" stop-opacity="0.7"/>
</linearGradient>
<linearGradient id="paint30_linear_747_2" x1="534554" y1="6705.01" x2="534554" y2="1861.66" gradientUnits="userSpaceOnUse">
<stop stop-color="#218B53"/>
<stop offset="1" stop-color="#43A672" stop-opacity="0.7"/>
</linearGradient>
<linearGradient id="paint31_linear_747_2" x1="534565" y1="6662.23" x2="534565" y2="1847.68" gradientUnits="userSpaceOnUse">
<stop stop-color="#218B53"/>
<stop offset="1" stop-color="#43A672" stop-opacity="0.7"/>
</linearGradient>
<linearGradient id="paint32_linear_747_2" x1="534554" y1="6597.95" x2="534554" y2="1828.03" gradientUnits="userSpaceOnUse">
<stop stop-color="#218B53"/>
<stop offset="1" stop-color="#43A672" stop-opacity="0.7"/>
</linearGradient>
<linearGradient id="paint33_linear_747_2" x1="534565" y1="6504.17" x2="534565" y2="1800.56" gradientUnits="userSpaceOnUse">
<stop stop-color="#218B53"/>
<stop offset="1" stop-color="#43A672" stop-opacity="0.7"/>
</linearGradient>
<linearGradient id="paint34_linear_747_2" x1="534554" y1="6391.85" x2="534554" y2="1768.23" gradientUnits="userSpaceOnUse">
<stop stop-color="#218B53"/>
<stop offset="1" stop-color="#43A672" stop-opacity="0.7"/>
</linearGradient>
<linearGradient id="paint35_linear_747_2" x1="534565" y1="6257.56" x2="534565" y2="1730.09" gradientUnits="userSpaceOnUse">
<stop stop-color="#218B53"/>
<stop offset="1" stop-color="#43A672" stop-opacity="0.7"/>
</linearGradient>
<linearGradient id="paint36_linear_747_2" x1="534550" y1="6107.86" x2="534550" y2="1687.92" gradientUnits="userSpaceOnUse">
<stop stop-color="#218B53"/>
<stop offset="1" stop-color="#43A672" stop-opacity="0.7"/>
</linearGradient>
<linearGradient id="paint37_linear_747_2" x1="534554" y1="5938.34" x2="534554" y2="1640.52" gradientUnits="userSpaceOnUse">
<stop stop-color="#218B53"/>
<stop offset="1" stop-color="#43A672" stop-opacity="0.7"/>
</linearGradient>
<linearGradient id="paint38_linear_747_2" x1="534546" y1="5750.19" x2="534546" y2="1588.21" gradientUnits="userSpaceOnUse">
<stop stop-color="#218B53"/>
<stop offset="1" stop-color="#43A672" stop-opacity="0.7"/>
</linearGradient>
<linearGradient id="paint39_linear_747_2" x1="534554" y1="5556.13" x2="534554" y2="1534.42" gradientUnits="userSpaceOnUse">
<stop stop-color="#218B53"/>
<stop offset="1" stop-color="#43A672" stop-opacity="0.7"/>
</linearGradient>
<linearGradient id="paint40_linear_747_2" x1="534554" y1="5346.4" x2="534554" y2="1476.51" gradientUnits="userSpaceOnUse">
<stop stop-color="#218B53"/>
<stop offset="1" stop-color="#43A672" stop-opacity="0.7"/>
</linearGradient>
<linearGradient id="paint41_linear_747_2" x1="534554" y1="5135.06" x2="534554" y2="1418.26" gradientUnits="userSpaceOnUse">
<stop stop-color="#218B53"/>
<stop offset="1" stop-color="#43A672" stop-opacity="0.7"/>
</linearGradient>
<linearGradient id="paint42_linear_747_2" x1="534554" y1="4912.67" x2="534554" y2="1357.14" gradientUnits="userSpaceOnUse">
<stop stop-color="#218B53"/>
<stop offset="1" stop-color="#43A672" stop-opacity="0.7"/>
</linearGradient>
<linearGradient id="paint43_linear_747_2" x1="534554" y1="4691.28" x2="534554" y2="1296.38" gradientUnits="userSpaceOnUse">
<stop stop-color="#218B53"/>
<stop offset="1" stop-color="#43A672" stop-opacity="0.7"/>
</linearGradient>
<linearGradient id="paint44_linear_747_2" x1="534528" y1="4474.56" x2="534528" y2="1236.98" gradientUnits="userSpaceOnUse">
<stop stop-color="#218B53"/>
<stop offset="1" stop-color="#43A672" stop-opacity="0.7"/>
</linearGradient>
<linearGradient id="paint45_linear_747_2" x1="534572" y1="4242.44" x2="534572" y2="1173.52" gradientUnits="userSpaceOnUse">
<stop stop-color="#218B53"/>
<stop offset="1" stop-color="#43A672" stop-opacity="0.7"/>
</linearGradient>
<linearGradient id="paint46_linear_747_2" x1="534554" y1="4099.33" x2="534554" y2="1134.14" gradientUnits="userSpaceOnUse">
<stop stop-color="#218B53"/>
<stop offset="1" stop-color="#43A672" stop-opacity="0.7"/>
</linearGradient>
<linearGradient id="paint47_linear_747_2" x1="534554" y1="3922.97" x2="534554" y2="1085.87" gradientUnits="userSpaceOnUse">
<stop stop-color="#218B53"/>
<stop offset="1" stop-color="#43A672" stop-opacity="0.7"/>
</linearGradient>
<linearGradient id="paint48_linear_747_2" x1="534565" y1="3782.79" x2="534565" y2="1047.47" gradientUnits="userSpaceOnUse">
<stop stop-color="#218B53"/>
<stop offset="1" stop-color="#43A672" stop-opacity="0.7"/>
</linearGradient>
<linearGradient id="paint49_linear_747_2" x1="534554" y1="3669.4" x2="534554" y2="1016.35" gradientUnits="userSpaceOnUse">
<stop stop-color="#218B53"/>
<stop offset="1" stop-color="#43A672" stop-opacity="0.7"/>
</linearGradient>
<linearGradient id="paint50_linear_747_2" x1="534535" y1="3575.11" x2="534535" y2="990.44" gradientUnits="userSpaceOnUse">
<stop stop-color="#218B53"/>
<stop offset="1" stop-color="#43A672" stop-opacity="0.7"/>
</linearGradient>
<linearGradient id="paint51_linear_747_2" x1="534543" y1="3494.92" x2="534543" y2="968.406" gradientUnits="userSpaceOnUse">
<stop stop-color="#218B53"/>
<stop offset="1" stop-color="#43A672" stop-opacity="0.7"/>
</linearGradient>
<linearGradient id="paint52_linear_747_2" x1="534539" y1="3429.68" x2="534539" y2="950.453" gradientUnits="userSpaceOnUse">
<stop stop-color="#218B53"/>
<stop offset="1" stop-color="#43A672" stop-opacity="0.7"/>
</linearGradient>
<linearGradient id="paint53_linear_747_2" x1="534546" y1="3431.73" x2="534546" y2="950.311" gradientUnits="userSpaceOnUse">
<stop stop-color="#218B53"/>
<stop offset="1" stop-color="#43A672" stop-opacity="0.7"/>
</linearGradient>
<linearGradient id="paint54_linear_747_2" x1="534569" y1="3520.58" x2="534569" y2="973.106" gradientUnits="userSpaceOnUse">
<stop stop-color="#218B53"/>
<stop offset="1" stop-color="#43A672" stop-opacity="0.7"/>
</linearGradient>
<linearGradient id="paint55_linear_747_2" x1="534558" y1="3612.65" x2="534558" y2="996.85" gradientUnits="userSpaceOnUse">
<stop stop-color="#218B53"/>
<stop offset="1" stop-color="#43A672" stop-opacity="0.7"/>
</linearGradient>
<linearGradient id="paint56_linear_747_2" x1="534554" y1="3706.34" x2="534554" y2="1021.12" gradientUnits="userSpaceOnUse">
<stop stop-color="#218B53"/>
<stop offset="1" stop-color="#43A672" stop-opacity="0.7"/>
</linearGradient>
<linearGradient id="paint57_linear_747_2" x1="534535" y1="3802.72" x2="534535" y2="1046.19" gradientUnits="userSpaceOnUse">
<stop stop-color="#218B53"/>
<stop offset="1" stop-color="#43A672" stop-opacity="0.7"/>
</linearGradient>
<linearGradient id="paint58_linear_747_2" x1="534539" y1="3892.05" x2="534539" y2="1069.48" gradientUnits="userSpaceOnUse">
<stop stop-color="#218B53"/>
<stop offset="1" stop-color="#43A672" stop-opacity="0.7"/>
</linearGradient>
<linearGradient id="paint59_linear_747_2" x1="534550" y1="3979.39" x2="534550" y2="1092.3" gradientUnits="userSpaceOnUse">
<stop stop-color="#218B53"/>
<stop offset="1" stop-color="#43A672" stop-opacity="0.7"/>
</linearGradient>
<linearGradient id="paint60_linear_747_2" x1="534550" y1="4059.95" x2="534550" y2="1113.39" gradientUnits="userSpaceOnUse">
<stop stop-color="#218B53"/>
<stop offset="1" stop-color="#43A672" stop-opacity="0.7"/>
</linearGradient>
<linearGradient id="paint61_linear_747_2" x1="534554" y1="4133.89" x2="534554" y2="1132.79" gradientUnits="userSpaceOnUse">
<stop stop-color="#218B53"/>
<stop offset="1" stop-color="#43A672" stop-opacity="0.7"/>
</linearGradient>
<linearGradient id="paint62_linear_747_2" x1="534550" y1="4204.78" x2="534550" y2="1151.46" gradientUnits="userSpaceOnUse">
<stop stop-color="#218B53"/>
<stop offset="1" stop-color="#43A672" stop-opacity="0.7"/>
</linearGradient>
<linearGradient id="paint63_linear_747_2" x1="534554" y1="4258.13" x2="534554" y2="1165.49" gradientUnits="userSpaceOnUse">
<stop stop-color="#218B53"/>
<stop offset="1" stop-color="#43A672" stop-opacity="0.7"/>
</linearGradient>
<linearGradient id="paint64_linear_747_2" x1="534554" y1="4304.48" x2="534554" y2="1177.73" gradientUnits="userSpaceOnUse">
<stop stop-color="#218B53"/>
<stop offset="1" stop-color="#43A672" stop-opacity="0.7"/>
</linearGradient>
<linearGradient id="paint65_linear_747_2" x1="534539" y1="4332.79" x2="534539" y2="1185.21" gradientUnits="userSpaceOnUse">
<stop stop-color="#218B53"/>
<stop offset="1" stop-color="#43A672" stop-opacity="0.7"/>
</linearGradient>
<linearGradient id="paint66_linear_747_2" x1="534569" y1="4309.2" x2="534569" y2="1178.78" gradientUnits="userSpaceOnUse">
<stop stop-color="#218B53"/>
<stop offset="1" stop-color="#43A672" stop-opacity="0.7"/>
</linearGradient>
</defs>
</svg>